<svg width="1138" height="988" viewBox="0 0 1138 988" fill="none" xmlns="http://www.w3.org/2000/svg">
<g opacity="0.44">
<path opacity="0.44" d="M78.03 745.37L0 653.06L635.34 116.021L713.37 208.341L78.03 745.37Z" fill="url(#paint0_radial_186:82)"/>
<path opacity="0.44" d="M625.31 715.86L561.16 639.97L1073.41 206.98L1137.56 282.86L625.31 715.86Z" fill="url(#paint1_radial_186:82)"/>
<path opacity="0.44" d="M199.82 408.691L174.8 379.091L418.23 173.331L443.25 202.931L199.82 408.691Z" fill="url(#paint2_radial_186:82)"/>
<path opacity="0.44" d="M344.28 869.561L294.81 811.031L588.75 562.581L638.21 621.101L344.28 869.561Z" fill="url(#paint3_radial_186:82)"/>
<path opacity="0.44" d="M452.38 654.941L396.26 588.551L800.47 246.871L856.59 313.261L452.38 654.941Z" fill="url(#paint4_radial_186:82)"/>
<path opacity="0.44" d="M106.48 887.97L33.27 801.35L404.42 487.63L477.63 574.24L106.48 887.97Z" fill="url(#paint5_radial_186:82)"/>
<path opacity="0.44" d="M630.71 987.44L603.43 955.16L825.58 767.38L852.87 799.66L630.71 987.44Z" fill="url(#paint6_radial_186:82)"/>
<path opacity="0.44" d="M590.37 875.981L548.33 826.241L890.66 536.871L932.71 586.611L590.37 875.981Z" fill="url(#paint7_radial_186:82)"/>
</g>
<g opacity="0.11">
<path opacity="0.11" d="M441.82 613.51C480.751 613.51 512.31 581.95 512.31 543.02C512.31 504.089 480.751 472.53 441.82 472.53C402.889 472.53 371.33 504.089 371.33 543.02C371.33 581.95 402.889 613.51 441.82 613.51Z" fill="url(#paint8_linear_186:82)"/>
<path opacity="0.11" d="M519.94 906.82C597.674 906.82 660.69 843.804 660.69 766.07C660.69 688.336 597.674 625.32 519.94 625.32C442.206 625.32 379.19 688.336 379.19 766.07C379.19 843.804 442.206 906.82 519.94 906.82Z" fill="url(#paint9_linear_186:82)"/>
<path opacity="0.11" d="M561.59 463.52C689.588 463.52 793.35 359.758 793.35 231.76C793.35 103.762 689.588 0 561.59 0C433.593 0 329.83 103.762 329.83 231.76C329.83 359.758 433.593 463.52 561.59 463.52Z" fill="url(#paint10_linear_186:82)"/>
<path opacity="0.11" d="M893.03 771.99C986.167 771.99 1061.67 696.487 1061.67 603.35C1061.67 510.213 986.167 434.71 893.03 434.71C799.893 434.71 724.39 510.213 724.39 603.35C724.39 696.487 799.893 771.99 893.03 771.99Z" fill="url(#paint11_linear_186:82)"/>
<path opacity="0.11" d="M149.16 571.94C201.235 571.94 243.45 529.725 243.45 477.65C243.45 425.575 201.235 383.36 149.16 383.36C97.0851 383.36 54.87 425.575 54.87 477.65C54.87 529.725 97.0851 571.94 149.16 571.94Z" fill="url(#paint12_linear_186:82)"/>
</g>
<g opacity="0.72">
<g opacity="0.72">
<path opacity="0.72" d="M929.87 245.15L772.65 385.35L770.45 382.88L927.67 242.68L929.87 245.15ZM933.29 248.98L776.07 389.18L778.27 391.65L935.49 251.45L933.29 248.98ZM938.92 255.29L781.7 395.49L783.9 397.96L941.12 257.76L938.92 255.29ZM944.54 261.59L787.32 401.79L789.52 404.26L946.74 264.06L944.54 261.59ZM950.16 267.9L792.94 408.1L795.14 410.57L952.36 270.37L950.16 267.9ZM955.78 274.2L798.56 414.4L800.76 416.87L957.98 276.67L955.78 274.2ZM961.41 280.51L804.19 420.71L806.39 423.18L963.61 282.98L961.41 280.51ZM967.03 286.81L809.81 427.01L812.01 429.48L969.23 289.28L967.03 286.81ZM972.65 293.12L815.43 433.32L817.63 435.79L974.85 295.59L972.65 293.12ZM978.27 299.42L821.05 439.62L823.25 442.09L980.47 301.89L978.27 299.42ZM983.9 305.73L826.68 445.93L828.88 448.4L986.1 308.2L983.9 305.73ZM989.52 312.03L832.3 452.23L834.5 454.7L991.72 314.5L989.52 312.03ZM995.14 318.34L837.92 458.54L840.12 461.01L997.34 320.81L995.14 318.34ZM1000.76 324.64L843.54 464.84L845.74 467.31L1002.96 327.11L1000.76 324.64ZM1006.38 330.95L849.16 471.15L851.36 473.62L1008.58 333.42L1006.38 330.95ZM1012.01 337.26L854.79 477.46L856.99 479.93L1014.21 339.73L1012.01 337.26ZM1017.63 343.56L860.41 483.76L862.61 486.23L1019.83 346.03L1017.63 343.56ZM1023.25 349.87L866.03 490.07L868.23 492.54L1025.45 352.34L1023.25 349.87ZM1028.87 356.17L871.65 496.37L873.85 498.84L1031.07 358.64L1028.87 356.17ZM1034.5 362.48L877.28 502.68L879.48 505.15L1036.7 364.95L1034.5 362.48ZM1040.12 368.78L882.9 508.98L885.1 511.45L1042.32 371.25L1040.12 368.78ZM1045.74 375.09L888.52 515.29L890.72 517.76L1047.94 377.56L1045.74 375.09ZM1051.36 381.39L894.14 521.59L896.34 524.06L1053.56 383.86L1051.36 381.39Z" fill="white"/>
</g>
<g opacity="0.72">
<path opacity="0.72" d="M738.71 533.83L485.23 759.87L481.68 755.89L735.17 529.85L738.71 533.83ZM744.23 540.01L490.74 766.06L494.29 770.04L747.78 544L744.23 540.01ZM753.29 550.18L499.81 776.22L503.36 780.2L756.85 554.16L753.29 550.18ZM762.36 560.34L508.87 786.39L512.42 790.37L765.91 564.33L762.36 560.34ZM771.42 570.51L517.94 796.55L521.49 800.53L774.98 574.49L771.42 570.51ZM780.49 580.67L527 806.72L530.55 810.7L784.04 584.66L780.49 580.67ZM789.55 590.84L536.07 816.88L539.62 820.86L793.1 594.82L789.55 590.84ZM798.62 601.01L545.13 827.05L548.68 831.03L802.17 604.99L798.62 601.01ZM807.68 611.17L554.2 837.22L557.75 841.2L811.24 615.16L807.68 611.17ZM816.75 621.34L563.26 847.38L566.81 851.36L820.3 625.32L816.75 621.34ZM825.81 631.5L572.33 857.55L575.88 861.53L829.37 635.49L825.81 631.5ZM834.88 641.67L581.39 867.71L584.94 871.69L838.43 645.65L834.88 641.67ZM843.94 651.83L590.46 877.88L594.01 881.86L847.5 655.82L843.94 651.83ZM853.01 662L599.52 888.04L603.07 892.02L856.56 665.98L853.01 662ZM862.08 672.17L608.59 898.21L612.14 902.19L865.63 676.15L862.08 672.17ZM871.14 682.33L617.65 908.38L621.2 912.36L874.69 686.32L871.14 682.33ZM880.21 692.5L626.72 918.54L630.27 922.52L883.76 696.48L880.21 692.5ZM889.27 702.66L635.78 928.71L639.33 932.69L892.82 706.65L889.27 702.66ZM898.34 712.83L644.85 938.87L648.4 942.85L901.89 716.81L898.34 712.83ZM907.4 722.99L653.91 949.04L657.46 953.02L910.95 726.98L907.4 722.99ZM916.47 733.16L662.98 959.2L666.53 963.18L920.02 737.14L916.47 733.16ZM925.53 743.33L672.04 969.37L675.59 973.35L929.08 747.31L925.53 743.33ZM934.6 753.49L681.11 979.54L684.66 983.52L938.15 757.48L934.6 753.49Z" fill="white"/>
</g>
<g opacity="0.72">
<path opacity="0.72" d="M522.58 180.53L379.49 308.12L377.49 305.87L520.57 178.28L522.58 180.53ZM525.69 184.02L382.61 311.61L384.61 313.86L527.69 186.27L525.69 184.02ZM530.81 189.76L387.72 317.35L389.72 319.6L532.81 192L530.81 189.76ZM535.92 195.5L392.84 323.09L394.84 325.34L537.92 197.75L535.92 195.5ZM541.04 201.23L397.96 328.82L399.96 331.07L543.04 203.48L541.04 201.23ZM546.16 206.97L403.07 334.56L405.07 336.81L548.15 209.22L546.16 206.97ZM551.27 212.71L408.19 340.3L410.19 342.55L553.27 214.96L551.27 212.71ZM556.39 218.45L413.31 346.04L415.31 348.29L558.39 220.7L556.39 218.45ZM561.51 224.19L418.43 351.78L420.43 354.03L563.51 226.44L561.51 224.19ZM566.62 229.92L423.54 357.51L425.54 359.76L568.62 232.17L566.62 229.92ZM571.74 235.66L428.66 363.25L430.66 365.5L573.74 237.91L571.74 235.66ZM576.86 241.4L433.78 368.99L435.78 371.24L578.86 243.65L576.86 241.4ZM581.97 247.14L438.89 374.73L440.89 376.98L583.97 249.39L581.97 247.14ZM587.09 252.88L444.01 380.47L446.01 382.72L589.09 255.13L587.09 252.88ZM592.21 258.61L449.13 386.2L451.13 388.45L594.21 260.86L592.21 258.61ZM597.32 264.35L454.24 391.94L456.24 394.19L599.33 266.6L597.32 264.35ZM602.44 270.09L459.36 397.68L461.36 399.93L604.44 272.34L602.44 270.09ZM607.56 275.83L464.48 403.42L466.48 405.67L609.56 278.08L607.56 275.83ZM612.68 281.57L469.59 409.16L471.59 411.41L614.67 283.82L612.68 281.57ZM617.79 287.3L474.71 414.9L476.71 417.15L619.8 289.55L617.79 287.3ZM622.91 293.04L479.83 420.63L481.83 422.88L624.91 295.29L622.91 293.04ZM628.03 298.78L484.94 426.37L486.94 428.62L630.02 301.03L628.03 298.78ZM633.14 304.52L490.06 432.11L492.06 434.36L635.14 306.77L633.14 304.52Z" fill="white"/>
</g>
<g opacity="0.72">
<path opacity="0.72" d="M279.4 495.21L174.28 588.95L172.81 587.3L277.93 493.56L279.4 495.21ZM281.69 497.78L176.57 591.52L178.04 593.17L283.16 499.43L281.69 497.78ZM285.45 501.99L180.33 595.73L181.8 597.38L286.92 503.64L285.45 501.99ZM289.21 506.21L184.09 599.95L185.56 601.6L290.68 507.86L289.21 506.21ZM292.97 510.43L187.85 604.17L189.32 605.82L294.44 512.08L292.97 510.43ZM296.73 514.64L191.6 608.38L193.07 610.03L298.19 516.29L296.73 514.64ZM300.49 518.86L195.36 612.6L196.83 614.25L301.95 520.51L300.49 518.86ZM304.24 523.07L199.12 616.81L200.59 618.46L305.71 524.72L304.24 523.07ZM308 527.29L202.88 621.03L204.35 622.68L309.47 528.94L308 527.29ZM311.76 531.5L206.64 625.24L208.11 626.89L313.23 533.15L311.76 531.5ZM315.52 535.72L210.4 629.46L211.87 631.11L317 537.37L315.52 535.72ZM319.28 539.94L214.16 633.68L215.63 635.33L320.75 541.59L319.28 539.94ZM323.04 544.15L217.92 637.89L219.39 639.54L324.51 545.8L323.04 544.15ZM326.8 548.37L221.68 642.11L223.15 643.76L328.27 550.02L326.8 548.37ZM330.56 552.58L225.44 646.32L226.91 647.97L332.03 554.23L330.56 552.58ZM334.32 556.8L229.2 650.54L230.67 652.19L335.79 558.45L334.32 556.8ZM338.08 561.02L232.96 654.76L234.43 656.41L339.55 562.67L338.08 561.02ZM341.84 565.23L236.72 658.97L238.19 660.62L343.31 566.88L341.84 565.23ZM345.6 569.45L240.48 663.19L241.95 664.84L347.07 571.1L345.6 569.45ZM349.36 573.66L244.24 667.4L245.71 669.05L350.83 575.31L349.36 573.66ZM353.12 577.88L248 671.62L249.47 673.27L354.59 579.53L353.12 577.88ZM356.88 582.09L251.76 675.83L253.23 677.48L358.35 583.74L356.88 582.09ZM360.64 586.31L255.52 680.05L256.99 681.7L362.11 587.96L360.64 586.31Z" fill="white"/>
</g>
<g opacity="0.72">
<path opacity="0.72" d="M196.99 261.551L99.82 348.201L98.46 346.671L195.63 260.021L196.99 261.551ZM199.11 263.921L101.94 350.571L103.3 352.101L200.47 265.451L199.11 263.921ZM202.58 267.821L105.41 354.471L106.77 356.001L203.94 269.351L202.58 267.821ZM206.06 271.711L108.89 358.361L110.25 359.891L207.42 273.241L206.06 271.711ZM209.53 275.611L112.36 362.261L113.72 363.791L210.89 277.141L209.53 275.611ZM213.01 279.511L115.84 366.161L117.2 367.691L214.37 281.041L213.01 279.511ZM216.48 283.411L119.31 370.061L120.67 371.591L217.84 284.941L216.48 283.411ZM219.96 287.301L122.79 373.951L124.15 375.481L221.32 288.831L219.96 287.301ZM223.43 291.201L126.26 377.851L127.62 379.381L224.79 292.731L223.43 291.201ZM226.91 295.101L129.74 381.751L131.1 383.281L228.27 296.631L226.91 295.101ZM230.38 298.991L133.21 385.641L134.57 387.171L231.74 300.521L230.38 298.991ZM233.86 302.891L136.69 389.541L138.05 391.071L235.22 304.421L233.86 302.891ZM237.33 306.791L140.16 393.441L141.52 394.971L238.69 308.321L237.33 306.791ZM240.81 310.681L143.64 397.331L145 398.861L242.17 312.211L240.81 310.681ZM244.28 314.581L147.11 401.231L148.47 402.761L245.64 316.111L244.28 314.581ZM247.76 318.481L150.59 405.131L151.95 406.661L249.12 320.001L247.76 318.481ZM251.24 322.371L154.07 409.021L155.43 410.551L252.6 323.901L251.24 322.371ZM254.71 326.271L157.54 412.921L158.9 414.451L256.07 327.801L254.71 326.271ZM258.19 330.171L161.02 416.821L162.38 418.351L259.55 331.701L258.19 330.171ZM261.66 334.071L164.49 420.721L165.85 422.251L263.02 335.601L261.66 334.071ZM265.14 337.961L167.97 424.611L169.33 426.141L266.5 339.491L265.14 337.961ZM268.61 341.861L171.44 428.511L172.8 430.041L269.97 343.391L268.61 341.861ZM272.09 345.761L174.92 432.411L176.28 433.941L273.45 347.291L272.09 345.761Z" fill="white"/>
</g>
<g opacity="0.72">
<path opacity="0.72" d="M473.86 515.45L409.42 572.92L408.52 571.91L472.96 514.44L473.86 515.45ZM475.26 517.02L410.82 574.49L411.72 575.5L476.16 518.03L475.26 517.02ZM477.56 519.6L413.12 577.07L414.02 578.08L478.46 520.61L477.56 519.6ZM479.87 522.19L415.43 579.66L416.33 580.67L480.77 523.2L479.87 522.19ZM482.17 524.77L417.73 582.24L418.63 583.25L483.07 525.78L482.17 524.77ZM484.48 527.36L420.04 584.83L420.94 585.84L485.38 528.37L484.48 527.36ZM486.78 529.94L422.34 587.41L423.24 588.42L487.68 530.95L486.78 529.94ZM489.09 532.53L424.65 590L425.55 591.01L489.99 533.54L489.09 532.53ZM491.39 535.11L426.95 592.58L427.85 593.59L492.29 536.12L491.39 535.11ZM493.7 537.7L429.26 595.17L430.16 596.18L494.6 538.71L493.7 537.7ZM496 540.28L431.56 597.75L432.46 598.76L496.9 541.29L496 540.28ZM498.31 542.86L433.87 600.33L434.77 601.34L499.21 543.87L498.31 542.86ZM500.61 545.45L436.17 602.92L437.07 603.93L501.51 546.46L500.61 545.45ZM502.92 548.03L438.48 605.5L439.38 606.51L503.82 549.04L502.92 548.03ZM505.22 550.62L440.78 608.09L441.68 609.1L506.12 551.63L505.22 550.62ZM507.52 553.2L443.08 610.67L443.98 611.68L508.42 554.21L507.52 553.2ZM509.83 555.79L445.39 613.26L446.29 614.27L510.73 556.8L509.83 555.79ZM512.13 558.37L447.69 615.84L448.59 616.85L513.03 559.38L512.13 558.37ZM514.44 560.96L450 618.43L450.9 619.44L515.34 561.97L514.44 560.96ZM516.74 563.54L452.3 621.01L453.2 622.02L517.64 564.55L516.74 563.54ZM519.05 566.12L454.61 623.59L455.51 624.6L519.95 567.13L519.05 566.12ZM521.35 568.71L456.91 626.18L457.81 627.19L522.25 569.72L521.35 568.71ZM523.66 571.29L459.22 628.76L460.12 629.77L524.56 572.3L523.66 571.29Z" fill="white"/>
</g>
<g opacity="0.72">
<path opacity="0.72" d="M351.72 710.64L287.28 768.11L286.38 767.1L350.82 709.63L351.72 710.64ZM353.13 712.21L288.69 769.68L289.59 770.69L354.03 713.22L353.13 712.21ZM355.43 714.79L290.99 772.26L291.89 773.27L356.33 715.8L355.43 714.79ZM357.74 717.38L293.3 774.85L294.2 775.86L358.64 718.39L357.74 717.38ZM360.04 719.96L295.6 777.43L296.5 778.44L360.94 720.97L360.04 719.96ZM362.35 722.55L297.91 780.02L298.81 781.03L363.25 723.56L362.35 722.55ZM364.65 725.13L300.21 782.6L301.11 783.61L365.55 726.14L364.65 725.13ZM366.95 727.72L302.51 785.19L303.41 786.2L367.85 728.73L366.95 727.72ZM369.26 730.3L304.82 787.77L305.72 788.78L370.16 731.31L369.26 730.3ZM371.56 732.88L307.12 790.35L308.02 791.36L372.46 733.89L371.56 732.88ZM373.87 735.47L309.43 792.94L310.33 793.95L374.77 736.48L373.87 735.47ZM376.17 738.05L311.73 795.52L312.63 796.53L377.07 739.06L376.17 738.05ZM378.48 740.64L314.04 798.11L314.94 799.12L379.38 741.65L378.48 740.64ZM380.78 743.22L316.34 800.69L317.24 801.7L381.68 744.23L380.78 743.22ZM383.09 745.81L318.65 803.28L319.55 804.29L383.99 746.82L383.09 745.81ZM385.39 748.39L320.95 805.86L321.85 806.87L386.29 749.4L385.39 748.39ZM387.7 750.98L323.26 808.45L324.16 809.46L388.6 751.99L387.7 750.98ZM390 753.56L325.56 811.03L326.46 812.04L390.9 754.57L390 753.56ZM392.31 756.14L327.87 813.61L328.77 814.62L393.21 757.15L392.31 756.14ZM394.61 758.73L330.17 816.2L331.07 817.21L395.51 759.74L394.61 758.73ZM396.91 761.31L332.47 818.78L333.37 819.79L397.81 762.32L396.91 761.31ZM399.22 763.9L334.78 821.37L335.68 822.38L400.12 764.91L399.22 763.9ZM401.52 766.48L337.08 823.95L337.98 824.96L402.42 767.49L401.52 766.48Z" fill="white"/>
</g>
<g opacity="0.72">
<path opacity="0.72" d="M913.73 502L816.56 588.65L815.2 587.12L912.37 500.47L913.73 502ZM915.84 504.37L818.67 591.02L820.03 592.55L917.2 505.9L915.84 504.37ZM919.32 508.27L822.15 594.92L823.51 596.45L920.68 509.8L919.32 508.27ZM922.79 512.17L825.62 598.82L826.98 600.35L924.15 513.7L922.79 512.17ZM926.27 516.06L829.1 602.71L830.46 604.24L927.63 517.59L926.27 516.06ZM929.74 519.96L832.57 606.61L833.93 608.14L931.1 521.49L929.74 519.96ZM933.22 523.86L836.05 610.51L837.41 612.04L934.58 525.39L933.22 523.86ZM936.69 527.76L839.52 614.41L840.88 615.94L938.05 529.29L936.69 527.76ZM940.17 531.65L843 618.3L844.36 619.83L941.53 533.18L940.17 531.65ZM943.64 535.55L846.47 622.2L847.83 623.73L945 537.08L943.64 535.55ZM947.12 539.45L849.95 626.1L851.31 627.63L948.48 540.98L947.12 539.45ZM950.59 543.34L853.42 630L854.78 631.53L951.95 544.88L950.59 543.34ZM954.07 547.24L856.9 633.89L858.26 635.42L955.43 548.77L954.07 547.24ZM957.54 551.14L860.37 637.79L861.73 639.32L958.9 552.67L957.54 551.14ZM961.02 555.03L863.85 641.68L865.21 643.21L962.38 556.56L961.02 555.03ZM964.49 558.93L867.32 645.58L868.68 647.11L965.85 560.46L964.49 558.93ZM967.97 562.83L870.8 649.48L872.16 651.01L969.33 564.36L967.97 562.83ZM971.44 566.73L874.27 653.38L875.63 654.91L972.8 568.26L971.44 566.73ZM974.92 570.62L877.75 657.27L879.11 658.8L976.28 572.15L974.92 570.62ZM978.39 574.52L881.22 661.17L882.58 662.7L979.75 576.05L978.39 574.52ZM981.87 578.42L884.7 665.07L886.06 666.6L983.23 579.95L981.87 578.42ZM985.34 582.31L888.17 668.96L889.53 670.49L986.7 583.84L985.34 582.31ZM988.82 586.21L891.65 672.86L893.01 674.39L990.18 587.74L988.82 586.21Z" fill="white"/>
</g>
</g>
<g opacity="0.68">
<path opacity="0.68" d="M378.52 368.91L308.83 427.9" stroke="white" stroke-width="2" stroke-miterlimit="10" stroke-linecap="round"/>
<path opacity="0.68" d="M194.41 449.91L124.73 508.9" stroke="white" stroke-width="2" stroke-miterlimit="10" stroke-linecap="round"/>
<path opacity="0.68" d="M391.68 196.99L321.99 255.99" stroke="white" stroke-width="2" stroke-miterlimit="10" stroke-linecap="round"/>
<path opacity="0.68" d="M577.02 399.38L507.34 458.37" stroke="white" stroke-width="2" stroke-miterlimit="10" stroke-linecap="round"/>
<path opacity="0.68" d="M566.45 551.62L496.76 610.61" stroke="white" stroke-width="2" stroke-miterlimit="10" stroke-linecap="round"/>
<path opacity="0.68" d="M830.73 628.04L761.04 687.04" stroke="white" stroke-width="2" stroke-miterlimit="10" stroke-linecap="round"/>
<path opacity="0.68" d="M837.64 348.14L767.95 407.13" stroke="white" stroke-width="2" stroke-miterlimit="10" stroke-linecap="round"/>
<path opacity="0.68" d="M854.38 488.08L784.7 547.07" stroke="white" stroke-width="2" stroke-miterlimit="10" stroke-linecap="round"/>
<path opacity="0.68" d="M799.82 825.46L730.14 884.46" stroke="white" stroke-width="2" stroke-miterlimit="10" stroke-linecap="round"/>
<path opacity="0.68" d="M326.45 553.55L256.77 612.54" stroke="white" stroke-width="2" stroke-miterlimit="10" stroke-linecap="round"/>
<path opacity="0.68" d="M583.03 739.37L513.35 798.36" stroke="white" stroke-width="2" stroke-miterlimit="10" stroke-linecap="round"/>
</g>
<path d="M441.08 510.051C424.82 510.051 411.6 496.821 411.6 480.571C411.6 464.321 424.83 451.091 441.08 451.091C457.34 451.091 470.56 464.321 470.56 480.571C470.56 496.821 457.33 510.051 441.08 510.051ZM441.08 452.211C425.45 452.211 412.73 464.931 412.73 480.561C412.73 496.191 425.45 508.911 441.08 508.911C456.71 508.911 469.43 496.191 469.43 480.561C469.43 464.931 456.71 452.211 441.08 452.211Z" fill="url(#paint13_linear_186:82)"/>
<path d="M915.28 317.201C886.3 317.201 862.73 293.631 862.73 264.651C862.73 235.671 886.31 212.101 915.28 212.101C944.25 212.101 967.83 235.681 967.83 264.651C967.83 293.621 944.26 317.201 915.28 317.201ZM915.28 214.111C887.41 214.111 864.74 236.781 864.74 264.651C864.74 292.521 887.41 315.191 915.28 315.191C943.15 315.191 965.82 292.521 965.82 264.651C965.82 236.781 943.15 214.111 915.28 214.111Z" fill="url(#paint14_linear_186:82)"/>
<path d="M356.35 354.43C321 354.43 292.23 325.67 292.23 290.31C292.23 254.95 320.99 226.19 356.35 226.19C391.7 226.19 420.47 254.95 420.47 290.31C420.47 325.67 391.7 354.43 356.35 354.43ZM356.35 228.66C322.35 228.66 294.69 256.32 294.69 290.32C294.69 324.32 322.35 351.98 356.35 351.98C390.35 351.98 418.01 324.32 418.01 290.32C418.01 256.32 390.35 228.66 356.35 228.66Z" fill="url(#paint15_linear_186:82)"/>
<path d="M369.33 784.111C325.8 784.111 290.38 748.701 290.38 705.171C290.38 661.641 325.79 626.221 369.33 626.221C412.87 626.221 448.27 661.631 448.27 705.171C448.28 748.691 412.86 784.111 369.33 784.111ZM369.33 629.241C327.47 629.241 293.41 663.301 293.41 705.161C293.41 747.021 327.47 781.081 369.33 781.081C411.19 781.081 445.25 747.021 445.25 705.161C445.25 663.301 411.19 629.241 369.33 629.241Z" fill="url(#paint16_linear_186:82)"/>
<path d="M679.01 723.771C662.75 723.771 649.53 710.541 649.53 694.291C649.53 678.031 662.76 664.811 679.01 664.811C695.26 664.811 708.49 678.041 708.49 694.291C708.49 710.541 695.27 723.771 679.01 723.771ZM679.01 665.941C663.38 665.941 650.66 678.661 650.66 694.291C650.66 709.921 663.38 722.641 679.01 722.641C694.64 722.641 707.36 709.921 707.36 694.291C707.36 678.661 694.64 665.941 679.01 665.941Z" fill="url(#paint17_linear_186:82)"/>
<path d="M911.28 782.73C895.02 782.73 881.8 769.51 881.8 753.25C881.8 736.99 895.03 723.771 911.28 723.771C927.54 723.771 940.76 737 940.76 753.25C940.76 769.51 927.53 782.73 911.28 782.73ZM911.28 724.901C895.65 724.901 882.93 737.62 882.93 753.25C882.93 768.88 895.65 781.6 911.28 781.6C926.91 781.6 939.63 768.88 939.63 753.25C939.63 737.62 926.91 724.901 911.28 724.901Z" fill="url(#paint18_linear_186:82)"/>
<path d="M762.22 375.44C745.96 375.44 732.74 362.21 732.74 345.96C732.74 329.71 745.97 316.48 762.22 316.48C778.47 316.48 791.7 329.71 791.7 345.96C791.7 362.21 778.48 375.44 762.22 375.44ZM762.22 317.61C746.59 317.61 733.87 330.33 733.87 345.96C733.87 361.59 746.59 374.31 762.22 374.31C777.85 374.31 790.57 361.59 790.57 345.96C790.57 330.32 777.86 317.61 762.22 317.61Z" fill="url(#paint19_linear_186:82)"/>
<path d="M788.87 537.071C777.68 537.071 768.58 527.971 768.58 516.781C768.58 505.591 777.68 496.491 788.87 496.491C800.06 496.491 809.16 505.591 809.16 516.781C809.16 527.971 800.06 537.071 788.87 537.071ZM788.87 497.271C778.11 497.271 769.36 506.021 769.36 516.781C769.36 527.541 778.11 536.291 788.87 536.291C799.63 536.291 808.38 527.541 808.38 516.781C808.38 506.021 799.63 497.271 788.87 497.271Z" fill="url(#paint20_linear_186:82)"/>
<path d="M564.13 351.21C552.94 351.21 543.84 342.11 543.84 330.92C543.84 319.73 552.94 310.63 564.13 310.63C575.32 310.63 584.42 319.73 584.42 330.92C584.42 342.11 575.32 351.21 564.13 351.21ZM564.13 311.42C553.37 311.42 544.62 320.17 544.62 330.93C544.62 341.69 553.37 350.44 564.13 350.44C574.89 350.44 583.64 341.69 583.64 330.93C583.64 320.17 574.89 311.42 564.13 311.42Z" fill="url(#paint21_linear_186:82)"/>
<path d="M262.05 558.25C250.86 558.25 241.76 549.15 241.76 537.96C241.76 526.77 250.86 517.67 262.05 517.67C273.24 517.67 282.34 526.77 282.34 537.96C282.34 549.15 273.24 558.25 262.05 558.25ZM262.05 518.45C251.29 518.45 242.54 527.2 242.54 537.96C242.54 548.72 251.29 557.47 262.05 557.47C272.81 557.47 281.56 548.72 281.56 537.96C281.56 527.21 272.81 518.45 262.05 518.45Z" fill="url(#paint22_linear_186:82)"/>
<path d="M174.38 415.631C163.19 415.631 154.09 406.531 154.09 395.341C154.09 384.151 163.19 375.051 174.38 375.051C185.57 375.051 194.67 384.151 194.67 395.341C194.67 406.531 185.57 415.631 174.38 415.631ZM174.38 375.841C163.62 375.841 154.87 384.591 154.87 395.351C154.87 406.111 163.62 414.861 174.38 414.861C185.14 414.861 193.89 406.111 193.89 395.351C193.89 384.591 185.14 375.841 174.38 375.841Z" fill="url(#paint23_linear_186:82)"/>
<path d="M933.73 577.77C904.62 577.77 880.93 554.09 880.93 524.97C880.93 495.86 904.61 472.17 933.73 472.17C962.84 472.17 986.53 495.85 986.53 524.97C986.53 554.09 962.84 577.77 933.73 577.77ZM933.73 474.21C905.74 474.21 882.96 496.99 882.96 524.98C882.96 552.97 905.74 575.75 933.73 575.75C961.72 575.75 984.5 552.97 984.5 524.98C984.5 496.98 961.73 474.21 933.73 474.21Z" fill="url(#paint24_linear_186:82)"/>
<path d="M530.51 655.831C519.32 655.831 510.22 646.73 510.22 635.54C510.22 624.35 519.32 615.25 530.51 615.25C541.7 615.25 550.8 624.35 550.8 635.54C550.8 646.73 541.7 655.831 530.51 655.831ZM530.51 616.031C519.75 616.031 511 624.78 511 635.54C511 646.3 519.75 655.05 530.51 655.05C541.27 655.05 550.02 646.3 550.02 635.54C550.02 624.79 541.27 616.031 530.51 616.031Z" fill="url(#paint25_linear_186:82)"/>
<defs>
<radialGradient id="paint0_radial_186:82" cx="0" cy="0" r="1" gradientUnits="userSpaceOnUse" gradientTransform="translate(318.127 378.933) rotate(49.7963) scale(71.0636 457.262)">
<stop/>
<stop offset="1" stop-opacity="0"/>
</radialGradient>
<radialGradient id="paint1_radial_186:82" cx="0" cy="0" r="1" gradientUnits="userSpaceOnUse" gradientTransform="translate(817.616 418.905) rotate(49.7868) scale(58.4228 368.674)">
<stop/>
<stop offset="1" stop-opacity="0"/>
</radialGradient>
<radialGradient id="paint2_radial_186:82" cx="0" cy="0" r="1" gradientUnits="userSpaceOnUse" gradientTransform="translate(296.846 274.283) rotate(49.8065) scale(22.7806 175.217)">
<stop/>
<stop offset="1" stop-opacity="0"/>
</radialGradient>
<radialGradient id="paint3_radial_186:82" cx="0" cy="0" r="1" gradientUnits="userSpaceOnUse" gradientTransform="translate(441.605 683.646) rotate(49.7973) scale(45.049 211.555)">
<stop/>
<stop offset="1" stop-opacity="0"/>
</radialGradient>
<radialGradient id="paint4_radial_186:82" cx="0" cy="0" r="1" gradientUnits="userSpaceOnUse" gradientTransform="translate(598.444 413.861) rotate(49.7993) scale(51.1073 290.927)">
<stop/>
<stop offset="1" stop-opacity="0"/>
</radialGradient>
<radialGradient id="paint5_radial_186:82" cx="0" cy="0" r="1" gradientUnits="userSpaceOnUse" gradientTransform="translate(218.228 640.109) rotate(49.7969) scale(66.6726 267.123)">
<stop/>
<stop offset="1" stop-opacity="0"/>
</radialGradient>
<radialGradient id="paint6_radial_186:82" cx="0" cy="0" r="1" gradientUnits="userSpaceOnUse" gradientTransform="translate(714.645 859.318) rotate(49.7963) scale(24.8488 159.891)">
<stop/>
<stop offset="1" stop-opacity="0"/>
</radialGradient>
<radialGradient id="paint7_radial_186:82" cx="0" cy="0" r="1" gradientUnits="userSpaceOnUse" gradientTransform="translate(719.732 678.535) rotate(49.7962) scale(38.2908 246.384)">
<stop/>
<stop offset="1" stop-opacity="0"/>
</radialGradient>
<linearGradient id="paint8_linear_186:82" x1="382.341" y1="483.548" x2="492.685" y2="593.892" gradientUnits="userSpaceOnUse">
<stop stop-color="#A0F1FF" stop-opacity="0"/>
<stop offset="0.9933" stop-color="#E1A8FF"/>
</linearGradient>
<linearGradient id="paint9_linear_186:82" x1="625.111" y1="871.246" x2="363.785" y2="609.92" gradientUnits="userSpaceOnUse">
<stop stop-color="#A0F1FF" stop-opacity="0"/>
<stop offset="0.9933" stop-color="#E1A8FF"/>
</linearGradient>
<linearGradient id="paint10_linear_186:82" x1="366.048" y1="36.219" x2="728.835" y2="399.006" gradientUnits="userSpaceOnUse">
<stop stop-color="#A0F1FF" stop-opacity="0"/>
<stop offset="0.9933" stop-color="#E1A8FF"/>
</linearGradient>
<linearGradient id="paint11_linear_186:82" x1="1058.43" y1="768.742" x2="727.162" y2="437.475" gradientUnits="userSpaceOnUse">
<stop stop-color="#A0F1FF" stop-opacity="0"/>
<stop offset="0.9933" stop-color="#E1A8FF"/>
</linearGradient>
<linearGradient id="paint12_linear_186:82" x1="69.6042" y1="398.091" x2="217.205" y2="545.691" gradientUnits="userSpaceOnUse">
<stop stop-color="#A0F1FF" stop-opacity="0"/>
<stop offset="0.9933" stop-color="#E1A8FF"/>
</linearGradient>
<linearGradient id="paint13_linear_186:82" x1="411.595" y1="480.566" x2="470.558" y2="480.566" gradientUnits="userSpaceOnUse">
<stop stop-color="#A0F1FF" stop-opacity="0"/>
<stop offset="0.9887" stop-color="#A0F1FF"/>
</linearGradient>
<linearGradient id="paint14_linear_186:82" x1="862.729" y1="264.645" x2="967.836" y2="264.645" gradientUnits="userSpaceOnUse">
<stop stop-color="#A0F1FF" stop-opacity="0"/>
<stop offset="0.9887" stop-color="#A0F1FF"/>
</linearGradient>
<linearGradient id="paint15_linear_186:82" x1="366" y1="226" x2="477.5" y2="338" gradientUnits="userSpaceOnUse">
<stop stop-color="#FF40D5" stop-opacity="0"/>
<stop offset="0.9887" stop-color="#97C1FF"/>
</linearGradient>
<linearGradient id="paint16_linear_186:82" x1="290.386" y1="705.162" x2="448.276" y2="705.162" gradientUnits="userSpaceOnUse">
<stop stop-color="#0066FF" stop-opacity="0"/>
<stop offset="0.9887" stop-color="#FFA0F5"/>
</linearGradient>
<linearGradient id="paint17_linear_186:82" x1="649.53" y1="694.289" x2="708.492" y2="694.289" gradientUnits="userSpaceOnUse">
<stop stop-color="#A0F1FF" stop-opacity="0"/>
<stop offset="0.9887" stop-color="#A0F1FF"/>
</linearGradient>
<linearGradient id="paint18_linear_186:82" x1="881.797" y1="753.251" x2="940.76" y2="753.251" gradientUnits="userSpaceOnUse">
<stop stop-color="#A0F1FF" stop-opacity="0"/>
<stop offset="0.9887" stop-color="#A0F1FF"/>
</linearGradient>
<linearGradient id="paint19_linear_186:82" x1="732.743" y1="345.957" x2="791.706" y2="345.957" gradientUnits="userSpaceOnUse">
<stop stop-color="#A0F1FF" stop-opacity="0"/>
<stop offset="0.9887" stop-color="#A0F1FF"/>
</linearGradient>
<linearGradient id="paint20_linear_186:82" x1="768.587" y1="516.78" x2="809.159" y2="516.78" gradientUnits="userSpaceOnUse">
<stop stop-color="#A0F1FF" stop-opacity="0"/>
<stop offset="0.9887" stop-color="#A0F1FF"/>
</linearGradient>
<linearGradient id="paint21_linear_186:82" x1="543.845" y1="330.924" x2="584.418" y2="330.924" gradientUnits="userSpaceOnUse">
<stop stop-color="#A0F1FF" stop-opacity="0"/>
<stop offset="0.9887" stop-color="#B3A0FF"/>
</linearGradient>
<linearGradient id="paint22_linear_186:82" x1="241.768" y1="537.962" x2="282.34" y2="537.962" gradientUnits="userSpaceOnUse">
<stop stop-color="#A0F1FF" stop-opacity="0"/>
<stop offset="0.9887" stop-color="#A0F1FF"/>
</linearGradient>
<linearGradient id="paint23_linear_186:82" x1="154.097" y1="395.348" x2="194.67" y2="395.348" gradientUnits="userSpaceOnUse">
<stop stop-color="#A0F1FF" stop-opacity="0"/>
<stop offset="0.9887" stop-color="#A0F1FF"/>
</linearGradient>
<linearGradient id="paint24_linear_186:82" x1="896" y1="538.5" x2="986.527" y2="524.98" gradientUnits="userSpaceOnUse">
<stop stop-color="#68A4FF" stop-opacity="0"/>
<stop offset="0.9887" stop-color="#FF84DC"/>
</linearGradient>
<linearGradient id="paint25_linear_186:82" x1="510.228" y1="635.542" x2="550.8" y2="635.542" gradientUnits="userSpaceOnUse">
<stop stop-color="#A0F1FF" stop-opacity="0"/>
<stop offset="0.9887" stop-color="#DB8DFF"/>
</linearGradient>
</defs>
</svg>
