<svg width="1468" height="1365" viewBox="0 0 1468 1365" fill="none" xmlns="http://www.w3.org/2000/svg">
<path d="M323 529C345.644 529 364 547.356 364 570L364 616.166C364 638.809 345.644 657.165 323 657.165L157 657.165C134.356 657.165 116 638.809 116 616.165L116 570C116 547.356 134.356 529 157 529L323 529Z" fill="#55E0FF" style="mix-blend-mode:multiply"/>
<path d="M165.616 649.111C143.754 649.111 126.162 631.142 126.625 609.285L127.406 572.386C127.855 551.174 145.18 534.212 166.397 534.212L314.493 534.212C335.706 534.212 353.029 551.167 353.484 572.375L353.971 595.059L353.971 610.111C353.971 631.65 336.51 649.111 314.971 649.111L239.876 649.111L165.616 649.111Z" fill="#EB00FF" style="mix-blend-mode:hard-light"/>
<path d="M255.664 662.851C267.814 662.851 277.664 672.701 277.664 684.851L277.664 706C277.664 718.15 267.814 728 255.664 728L224.579 728C212.429 728 202.579 718.15 202.579 706L202.579 684.851C202.579 672.701 212.429 662.851 224.579 662.851L255.664 662.851Z" fill="#0D09FF" style="mix-blend-mode:multiply"/>
<rect x="630.471" y="606.154" width="185.529" height="177.846" rx="69" fill="#00F0FF"/>
<rect x="611" y="582" width="184.241" height="185.817" rx="69" fill="#FF00E5" style="mix-blend-mode:multiply"/>
<rect x="745.547" y="644.579" width="56.6673" height="26.3492" rx="13.1746" fill="#B90BA7" style="mix-blend-mode:multiply"/>
<rect x="745.547" y="680.261" width="56.6673" height="26.3492" rx="13.1746" fill="#B90BA7" style="mix-blend-mode:multiply"/>
<rect x="662.146" y="636.894" width="56.6673" height="113.082" rx="28.3337" fill="#B90BA7" style="mix-blend-mode:multiply"/>
<rect x="745.547" y="715.942" width="56.6673" height="26.3492" rx="13.1746" fill="#B90BA7" style="mix-blend-mode:multiply"/>
<path d="M1099.94 611.086C1099.94 586.738 1119.68 567 1144.02 567H1157.01C1181.36 567 1201.09 586.738 1201.09 611.086V611.086C1201.09 635.434 1181.36 655.172 1157.01 655.172H1144.02C1119.68 655.172 1099.94 635.434 1099.94 611.086V611.086Z" fill="#00F0FF" style="mix-blend-mode:multiply"/>
<path d="M1096 722.547C1096 693.846 1119.27 670.579 1147.97 670.579H1163.14C1191.84 670.579 1215.11 693.846 1215.11 722.547V722.547C1215.11 751.248 1191.84 774.515 1163.14 774.515H1147.97C1119.27 774.515 1096 751.248 1096 722.547V722.547Z" fill="#00F0FF" style="mix-blend-mode:multiply"/>
<path d="M1111.89 634.452C1111.89 601.562 1138.56 574.899 1171.45 574.899V574.899C1204.34 574.899 1231 601.562 1231 634.452V701.415C1231 734.304 1204.34 760.967 1171.45 760.967V760.967C1138.56 760.967 1111.89 734.304 1111.89 701.414V634.452Z" fill="#FA00FF" style="mix-blend-mode:multiply"/>
<path d="M1107.87 709.528C1107.87 706.372 1110.42 703.813 1113.58 703.813H1127.67C1130.83 703.813 1133.39 706.372 1133.39 709.528V709.528C1133.39 712.685 1130.83 715.244 1127.67 715.244H1113.58C1110.42 715.244 1107.87 712.685 1107.87 709.528V709.528Z" fill="#B35AC1" style="mix-blend-mode:hard-light"/>
<path d="M1107.87 692.594C1107.87 689.437 1110.42 686.879 1113.58 686.879H1132.6C1135.75 686.879 1138.31 689.437 1138.31 692.594V692.594C1138.31 695.75 1135.75 698.309 1132.6 698.309H1113.58C1110.42 698.309 1107.87 695.75 1107.87 692.594V692.594Z" fill="#B35AC1" style="mix-blend-mode:hard-light"/>
<path d="M1156.9 692.594C1156.9 689.437 1159.46 686.879 1162.61 686.879H1180.96C1184.11 686.879 1186.67 689.437 1186.67 692.594V692.594C1186.67 695.75 1184.11 698.309 1180.96 698.309H1162.61C1159.46 698.309 1156.9 695.75 1156.9 692.594V692.594Z" fill="#B35AC1" style="mix-blend-mode:hard-light"/>
<path d="M1161.15 709.528C1161.15 706.372 1163.71 703.813 1166.87 703.813H1180.96C1184.11 703.813 1186.67 706.372 1186.67 709.528V709.528C1186.67 712.685 1184.11 715.244 1180.96 715.244H1166.87C1163.71 715.244 1161.15 712.685 1161.15 709.528V709.528Z" fill="#B35AC1" style="mix-blend-mode:hard-light"/>
<path d="M1107.87 729.215C1107.87 725.941 1110.52 723.288 1113.79 723.288H1127.46C1130.73 723.288 1133.39 725.941 1133.39 729.215V729.215C1133.39 732.488 1130.73 735.142 1127.46 735.142H1113.79C1110.52 735.142 1107.87 732.488 1107.87 729.215V729.215Z" fill="#B35AC1" style="mix-blend-mode:hard-light"/>
<path d="M1161.15 729.215C1161.15 725.941 1163.8 723.288 1167.08 723.288H1180.75C1184.02 723.288 1186.67 725.941 1186.67 729.215V729.215C1186.67 732.488 1184.02 735.142 1180.75 735.142H1167.08C1163.8 735.142 1161.15 732.488 1161.15 729.215V729.215Z" fill="#B35AC1" style="mix-blend-mode:hard-light"/>
<path d="M1107.87 748.901C1107.87 745.745 1110.42 743.186 1113.58 743.186H1127.67C1130.83 743.186 1133.39 745.745 1133.39 748.901V748.901C1133.39 752.058 1130.83 754.616 1127.67 754.616H1113.58C1110.42 754.616 1107.87 752.058 1107.87 748.901V748.901Z" fill="#B35AC1" style="mix-blend-mode:hard-light"/>
<path d="M1161.15 748.901C1161.15 745.745 1163.71 743.186 1166.87 743.186H1180.96C1184.11 743.186 1186.67 745.745 1186.67 748.901V748.901C1186.67 752.058 1184.11 754.616 1180.96 754.616H1166.87C1163.71 754.616 1161.15 752.058 1161.15 748.901V748.901Z" fill="#B35AC1" style="mix-blend-mode:hard-light"/>
<rect x="374" y="494.734" width="205.392" height="116.266" rx="58.1331" fill="#00F0FF"/>
<rect x="397.156" y="479" width="202.845" height="119.944" rx="59.9721" fill="#FF00E5" style="mix-blend-mode:multiply"/>
<rect x="387.525" y="515.085" width="158.375" height="89.7451" rx="44.8725" fill="#FF60D2" style="mix-blend-mode:multiply"/>
<rect x="458.205" y="596.79" width="17.2336" height="14.2096" rx="7.10482" fill="#4E7FFF" style="mix-blend-mode:multiply"/>
<path d="M888.542 589.953C875.745 595.145 861.182 588.968 856.021 576.158L849.493 559.954C844.335 547.151 850.521 532.569 863.311 527.379L926.443 501.765C939.237 496.574 953.795 502.746 958.96 515.551L961.296 521.343L965.495 531.751C970.66 544.556 964.475 559.145 951.681 564.336L888.542 589.953Z" fill="#FF15E8" style="mix-blend-mode:multiply"/>
<path style="mix-blend-mode:multiply" d="M905.455 591.097C892.649 596.258 878.059 590.07 872.868 577.276L871.849 574.765C866.658 561.97 872.832 547.415 885.638 542.254L947.581 517.29C960.388 512.129 974.977 518.317 980.168 531.111L981.187 533.623C986.378 546.417 980.205 560.972 967.399 566.133L905.455 591.097Z" fill="#00F0FF"/>
<path d="M970.902 650.066C958.104 655.258 943.542 649.081 938.38 636.27L931.853 620.067C926.694 607.264 932.88 592.682 945.67 587.492L1008.8 561.878C1021.6 556.687 1036.15 562.859 1041.32 575.663L1043.66 581.455L1047.85 591.864C1053.02 604.669 1046.83 619.257 1034.04 624.448L970.902 650.066Z" fill="#FF15E8" style="mix-blend-mode:multiply"/>
<path style="mix-blend-mode:multiply" d="M987.815 651.209C975.008 656.37 960.419 650.183 955.228 637.388L954.209 634.877C949.018 622.083 955.191 607.527 967.997 602.366L1029.94 577.402C1042.75 572.241 1057.34 578.429 1062.53 591.223L1063.55 593.735C1068.74 606.529 1062.56 621.085 1049.76 626.246L987.815 651.209Z" fill="#00F0FF"/>
</svg>
