<svg width="1468" height="1365" viewBox="0 0 1468 1365" fill="none" xmlns="http://www.w3.org/2000/svg">
<path d="M343 446C369.51 446 391 467.49 391 494L391 580.448C391 606.958 369.51 628.448 343 628.448L85 628.448C58.4903 628.448 37 606.958 37 580.448L37 494C37 467.49 58.4903 446 85 446L343 446Z" fill="#55E0FF" style="mix-blend-mode:multiply"/>
<path d="M101.015 616.982C73.5454 616.982 51.4423 594.405 52.0255 566.942L53.4178 501.379C53.9838 474.729 75.7502 453.419 102.407 453.419L326.864 453.419C353.515 453.419 375.279 474.72 375.853 501.365L376.685 540.038L376.685 567.982C376.685 595.044 354.747 616.982 327.685 616.982L213.824 616.982L101.015 616.982Z" fill="#EB00FF" style="mix-blend-mode:hard-light"/>
<path d="M240.764 636.542C255.675 636.542 267.764 648.631 267.764 663.542L267.764 702.284C267.764 717.196 255.675 729.284 240.764 729.284L187.586 729.284C172.674 729.284 160.586 717.196 160.586 702.284L160.586 663.542C160.586 648.631 172.674 636.542 187.586 636.542L240.764 636.542Z" fill="#0D09FF" style="mix-blend-mode:multiply"/>
<rect x="844.852" y="407.013" width="217.738" height="220.988" rx="34" fill="#00F0FF"/>
<rect x="822" y="377" width="216.226" height="230.891" rx="50" fill="#FF00E5" style="mix-blend-mode:multiply"/>
<rect x="979.906" y="454.76" width="66.5049" height="32.7409" rx="16.3704" fill="#B90BA7" style="mix-blend-mode:multiply"/>
<rect x="979.906" y="499.096" width="66.5049" height="32.7409" rx="16.3704" fill="#B90BA7" style="mix-blend-mode:multiply"/>
<rect x="882.025" y="445.21" width="66.5049" height="140.513" rx="33.2525" fill="#B90BA7" style="mix-blend-mode:multiply"/>
<rect x="979.906" y="543.433" width="66.5049" height="32.7409" rx="16.3704" fill="#B90BA7" style="mix-blend-mode:multiply"/>
<path d="M1127.94 582C1127.94 551.624 1152.56 527 1182.94 527H1199.68C1230.06 527 1254.68 551.624 1254.68 582V588.847C1254.68 619.222 1230.06 643.847 1199.68 643.847H1182.94C1152.56 643.847 1127.94 619.222 1127.94 588.847V582Z" fill="#00F0FF" style="mix-blend-mode:multiply"/>
<path d="M1123 717.264C1123 687.993 1146.73 664.264 1176 664.264H1219.24C1248.51 664.264 1272.24 687.993 1272.24 717.264V749C1272.24 778.271 1248.51 802 1219.24 802H1176C1146.73 802 1123 778.271 1123 749V717.264Z" fill="#00F0FF" style="mix-blend-mode:multiply"/>
<path d="M1142.92 602.468C1142.92 566.57 1172.02 537.468 1207.92 537.468H1227.15C1263.05 537.468 1292.15 566.57 1292.15 602.468V719.047C1292.15 754.945 1263.05 784.047 1227.15 784.047H1207.92C1172.02 784.047 1142.92 754.945 1142.92 719.047V602.468Z" fill="#FA00FF" style="mix-blend-mode:multiply"/>
<path d="M1137.87 715.88C1137.87 711.697 1141.26 708.306 1145.44 708.306H1162.27C1166.46 708.306 1169.85 711.697 1169.85 715.88V715.88C1169.85 720.063 1166.46 723.454 1162.27 723.454H1145.44C1141.26 723.454 1137.87 720.063 1137.87 715.88V715.88Z" fill="#B35AC1" style="mix-blend-mode:hard-light"/>
<path d="M1137.87 693.438C1137.87 689.255 1141.26 685.864 1145.44 685.864H1168.44C1172.63 685.864 1176.02 689.255 1176.02 693.438V693.438C1176.02 697.621 1172.63 701.012 1168.44 701.012H1145.44C1141.26 701.012 1137.87 697.621 1137.87 693.438V693.438Z" fill="#B35AC1" style="mix-blend-mode:hard-light"/>
<path d="M1199.3 693.438C1199.3 689.255 1202.69 685.864 1206.88 685.864H1229.04C1233.22 685.864 1236.61 689.255 1236.61 693.438V693.438C1236.61 697.621 1233.22 701.012 1229.04 701.012H1206.88C1202.69 701.012 1199.3 697.621 1199.3 693.438V693.438Z" fill="#B35AC1" style="mix-blend-mode:hard-light"/>
<path d="M1204.63 715.88C1204.63 711.697 1208.02 708.306 1212.2 708.306H1229.04C1233.22 708.306 1236.61 711.697 1236.61 715.88V715.88C1236.61 720.063 1233.22 723.454 1229.04 723.454H1212.2C1208.02 723.454 1204.63 720.063 1204.63 715.88V715.88Z" fill="#B35AC1" style="mix-blend-mode:hard-light"/>
<path d="M1137.87 741.968C1137.87 737.63 1141.38 734.114 1145.72 734.114H1161.99C1166.33 734.114 1169.85 737.63 1169.85 741.968V741.968C1169.85 746.306 1166.33 749.823 1161.99 749.823H1145.72C1141.38 749.823 1137.87 746.306 1137.87 741.968V741.968Z" fill="#B35AC1" style="mix-blend-mode:hard-light"/>
<path d="M1204.63 741.968C1204.63 737.63 1208.15 734.114 1212.49 734.114H1228.76C1233.09 734.114 1236.61 737.63 1236.61 741.968V741.968C1236.61 746.306 1233.09 749.823 1228.76 749.823H1212.49C1208.15 749.823 1204.63 746.306 1204.63 741.968V741.968Z" fill="#B35AC1" style="mix-blend-mode:hard-light"/>
<path d="M1137.87 768.057C1137.87 763.874 1141.26 760.483 1145.44 760.483H1162.27C1166.46 760.483 1169.85 763.874 1169.85 768.057V768.057C1169.85 772.24 1166.46 775.631 1162.27 775.631H1145.44C1141.26 775.631 1137.87 772.24 1137.87 768.057V768.057Z" fill="#B35AC1" style="mix-blend-mode:hard-light"/>
<path d="M1204.63 768.057C1204.63 763.874 1208.02 760.483 1212.2 760.483H1229.04C1233.22 760.483 1236.61 763.874 1236.61 768.057V768.057C1236.61 772.24 1233.22 775.631 1229.04 775.631H1212.2C1208.02 775.631 1204.63 772.24 1204.63 768.057V768.057Z" fill="#B35AC1" style="mix-blend-mode:hard-light"/>
<rect x="434" y="598.974" width="296.274" height="177.158" rx="55" fill="#00F0FF"/>
<rect x="467.4" y="575" width="292.6" height="182.762" rx="55" fill="#FF00E5" style="mix-blend-mode:multiply"/>
<rect x="454" y="626" width="228.453" height="136.747" rx="55" fill="#FF60D2" style="mix-blend-mode:multiply"/>
<rect x="555.465" y="754.48" width="24.8592" height="21.6515" rx="10.8258" fill="#4E7FFF" style="mix-blend-mode:multiply"/>
<path d="M469.658 445.908C447.646 454.839 422.599 444.214 413.722 422.179L407.298 406.233C398.427 384.212 409.066 359.131 431.066 350.205L519.812 314.197C541.817 305.269 566.858 315.885 575.741 337.909L577.532 342.351L582.172 353.853C591.055 375.877 580.417 400.969 558.411 409.898L469.658 445.908Z" fill="#FF15E8" style="mix-blend-mode:multiply"/>
<path style="mix-blend-mode:multiply" d="M488.24 450.606C470.311 457.831 449.886 449.168 442.619 431.257L438.626 421.417C431.359 403.505 440.001 383.127 457.93 375.901L559.677 334.895C577.606 327.669 598.032 336.332 605.299 354.244L609.291 364.083C616.559 381.995 607.916 402.373 589.987 409.599L488.24 450.606Z" fill="#00F0FF"/>
<path d="M596.084 537.661C574.072 546.592 549.025 535.967 540.148 513.933L533.724 497.986C524.852 475.965 535.492 450.884 557.491 441.958L646.237 405.951C668.243 397.022 693.284 407.638 702.167 429.662L703.958 434.104L708.597 445.606C717.481 467.63 706.842 492.722 684.837 501.651L596.084 537.661Z" fill="#FF15E8" style="mix-blend-mode:multiply"/>
<path style="mix-blend-mode:multiply" d="M612.811 543.106C595.907 549.919 576.648 541.751 569.796 524.862L564.3 511.316C557.448 494.428 565.597 475.214 582.501 468.402L687.958 425.9C704.862 419.087 724.121 427.255 730.973 444.143L736.469 457.689C743.321 474.577 735.172 493.791 718.268 500.604L612.811 543.106Z" fill="#00F0FF"/>
</svg>
