<svg width="1035" height="675" viewBox="0 0 1035 675" fill="none" xmlns="http://www.w3.org/2000/svg">
<path d="M356.824 351.08C336.607 351.08 320.171 335.491 320.171 316.343C320.171 297.196 336.62 281.606 356.824 281.606C377.041 281.606 393.478 297.196 393.478 316.343C393.478 335.491 377.028 351.08 356.824 351.08ZM356.824 282.926C337.391 282.926 321.576 297.914 321.576 316.331C321.576 334.749 337.391 349.737 356.824 349.737C376.257 349.737 392.073 334.749 392.073 316.331C392.073 297.914 376.257 282.926 356.824 282.926Z" fill="url(#paint0_linear_186_133)"/>
<path d="M946.413 123.841C910.381 123.841 881.075 96.0683 881.075 61.9206C881.075 27.773 910.393 0 946.413 0C982.432 0 1011.75 27.7847 1011.75 61.9206C1011.75 96.0565 982.444 123.841 946.413 123.841ZM946.413 2.36841C911.761 2.36841 883.574 29.0809 883.574 61.9206C883.574 94.7604 911.761 121.473 946.413 121.473C981.064 121.473 1009.25 94.7604 1009.25 61.9206C1009.25 29.0809 981.064 2.36841 946.413 2.36841Z" fill="url(#paint1_linear_186_133)"/>
<path d="M251.476 167.71C207.525 167.71 171.754 133.822 171.754 92.1563C171.754 50.491 207.512 16.6025 251.476 16.6025C295.428 16.6025 331.199 50.491 331.199 92.1563C331.199 133.822 295.428 167.71 251.476 167.71ZM251.476 19.513C209.203 19.513 174.812 52.1053 174.812 92.1681C174.812 132.231 209.203 164.823 251.476 164.823C293.75 164.823 328.14 132.231 328.14 92.1681C328.14 52.1053 293.75 19.513 251.476 19.513Z" fill="url(#paint2_linear_186_133)"/>
<path d="M267.615 674.01C213.493 674.01 169.454 632.286 169.454 580.994C169.454 529.701 213.48 487.965 267.615 487.965C321.75 487.965 365.764 529.69 365.764 580.994C365.776 632.274 321.737 674.01 267.615 674.01ZM267.615 491.524C215.569 491.524 173.221 531.657 173.221 580.982C173.221 630.306 215.569 670.44 267.615 670.44C319.661 670.44 362.009 630.306 362.009 580.982C362.009 531.657 319.661 491.524 267.615 491.524Z" fill="url(#paint3_linear_186_133)"/>
<path d="M652.65 602.91C632.434 602.91 615.997 587.321 615.997 568.173C615.997 549.014 632.446 533.437 652.65 533.437C672.854 533.437 689.304 549.026 689.304 568.173C689.304 587.321 672.867 602.91 652.65 602.91ZM652.65 534.768C633.217 534.768 617.402 549.756 617.402 568.173C617.402 586.59 633.217 601.579 652.65 601.579C672.084 601.579 687.899 586.59 687.899 568.173C687.899 549.756 672.084 534.768 652.65 534.768Z" fill="url(#paint4_linear_186_133)"/>
<path d="M941.439 672.384C921.223 672.384 904.786 656.806 904.786 637.647C904.786 618.488 921.235 602.91 941.439 602.91C961.656 602.91 978.093 618.499 978.093 637.647C978.093 656.806 961.643 672.384 941.439 672.384ZM941.439 604.242C922.006 604.242 906.191 619.23 906.191 637.647C906.191 656.064 922.006 671.052 941.439 671.052C960.872 671.052 976.688 656.064 976.688 637.647C976.688 619.23 960.872 604.242 941.439 604.242Z" fill="url(#paint5_linear_186_133)"/>
<path d="M756.108 192.466C735.891 192.466 719.455 176.877 719.455 157.729C719.455 138.582 735.904 122.993 756.108 122.993C776.312 122.993 792.761 138.582 792.761 157.729C792.761 176.877 776.325 192.466 756.108 192.466ZM756.108 124.324C736.675 124.324 720.86 139.312 720.86 157.729C720.86 176.147 736.675 191.135 756.108 191.135C775.541 191.135 791.356 176.147 791.356 157.729C791.356 139.301 775.554 124.324 756.108 124.324Z" fill="url(#paint6_linear_186_133)"/>
<path d="M789.243 382.918C775.33 382.918 764.016 372.196 764.016 359.01C764.016 345.825 775.33 335.102 789.243 335.102C803.156 335.102 814.47 345.825 814.47 359.01C814.47 372.196 803.156 382.918 789.243 382.918ZM789.243 336.021C775.864 336.021 764.985 346.331 764.985 359.01C764.985 371.689 775.864 381.999 789.243 381.999C802.621 381.999 813.5 371.689 813.5 359.01C813.5 346.331 802.621 336.021 789.243 336.021Z" fill="url(#paint7_linear_186_133)"/>
<path d="M509.816 163.916C495.903 163.916 484.589 153.193 484.589 140.008C484.589 126.822 495.903 116.1 509.816 116.1C523.729 116.1 535.043 126.822 535.043 140.008C535.043 153.193 523.729 163.916 509.816 163.916ZM509.816 117.03C496.438 117.03 485.559 127.341 485.559 140.019C485.559 152.698 496.438 163.008 509.816 163.008C523.194 163.008 534.074 152.698 534.074 140.019C534.074 127.341 523.194 117.03 509.816 117.03Z" fill="url(#paint8_linear_186_133)"/>
<path d="M134.23 407.875C120.317 407.875 109.003 397.152 109.003 383.967C109.003 370.781 120.317 360.059 134.23 360.059C148.143 360.059 159.457 370.781 159.457 383.967C159.457 397.152 148.143 407.875 134.23 407.875ZM134.23 360.978C120.852 360.978 109.973 371.288 109.973 383.967C109.973 396.645 120.852 406.956 134.23 406.956C147.609 406.956 158.488 396.645 158.488 383.967C158.488 371.3 147.609 360.978 134.23 360.978Z" fill="url(#paint9_linear_186_133)"/>
<path d="M25.2272 239.824C11.3143 239.824 0 229.101 0 215.915C0 202.73 11.3143 192.007 25.2272 192.007C39.1401 192.007 50.4544 202.73 50.4544 215.915C50.4544 229.101 39.1401 239.824 25.2272 239.824ZM25.2272 192.938C11.849 192.938 0.969798 203.249 0.969798 215.927C0.969798 228.606 11.849 238.916 25.2272 238.916C38.6055 238.916 49.4846 228.606 49.4846 215.927C49.4846 203.249 38.6055 192.938 25.2272 192.938Z" fill="url(#paint10_linear_186_133)"/>
<path d="M969.352 430.876C933.159 430.876 903.704 402.973 903.704 368.66C903.704 334.36 933.146 306.445 969.352 306.445C1005.55 306.445 1035 334.348 1035 368.66C1035 402.973 1005.55 430.876 969.352 430.876ZM969.352 308.849C934.551 308.849 906.228 335.691 906.228 368.672C906.228 401.653 934.551 428.496 969.352 428.496C1004.15 428.496 1032.48 401.653 1032.48 368.672C1032.48 335.679 1004.17 308.849 969.352 308.849Z" fill="url(#paint11_linear_186_133)" fill-opacity="0.7"/>
<path d="M468.015 522.855C454.102 522.855 442.788 512.133 442.788 498.947C442.788 485.762 454.102 475.039 468.015 475.039C481.928 475.039 493.243 485.762 493.243 498.947C493.243 512.133 481.928 522.855 468.015 522.855ZM468.015 475.958C454.637 475.958 443.758 486.268 443.758 498.947C443.758 511.626 454.637 521.936 468.015 521.936C481.394 521.936 492.273 511.626 492.273 498.947C492.273 486.28 481.394 475.958 468.015 475.958Z" fill="url(#paint12_linear_186_133)"/>
<defs>
<linearGradient id="paint0_linear_186_133" x1="320.165" y1="316.337" x2="393.475" y2="316.337" gradientUnits="userSpaceOnUse">
<stop stop-color="#A0F1FF" stop-opacity="0"/>
<stop offset="0.9887" stop-color="#A0D1FF"/>
</linearGradient>
<linearGradient id="paint1_linear_186_133" x1="881.074" y1="61.9139" x2="1011.76" y2="61.9139" gradientUnits="userSpaceOnUse">
<stop stop-color="#A0F1FF" stop-opacity="0"/>
<stop offset="0.9887" stop-color="#A0C6FF"/>
</linearGradient>
<linearGradient id="paint2_linear_186_133" x1="263.475" y1="16.3782" x2="394.636" y2="155.397" gradientUnits="userSpaceOnUse">
<stop stop-color="#FF40D5" stop-opacity="0"/>
<stop offset="0.9887" stop-color="#97C1FF"/>
</linearGradient>
<linearGradient id="paint3_linear_186_133" x1="169.461" y1="580.983" x2="365.771" y2="580.983" gradientUnits="userSpaceOnUse">
<stop stop-color="#0066FF" stop-opacity="0"/>
<stop offset="0.9887" stop-color="#FFA0F5"/>
</linearGradient>
<linearGradient id="paint4_linear_186_133" x1="615.997" y1="568.171" x2="689.307" y2="568.171" gradientUnits="userSpaceOnUse">
<stop stop-color="#7BCDFC" stop-opacity="0"/>
<stop offset="0.9886" stop-color="#A0BAFF" stop-opacity="0.995626"/>
<stop offset="0.9887" stop-color="#A0F1FF"/>
</linearGradient>
<linearGradient id="paint5_linear_186_133" x1="904.782" y1="637.648" x2="978.092" y2="637.648" gradientUnits="userSpaceOnUse">
<stop stop-color="#A0F1FF" stop-opacity="0"/>
<stop offset="0.9887" stop-color="#A0F1FF"/>
</linearGradient>
<linearGradient id="paint6_linear_186_133" x1="719.459" y1="157.725" x2="792.769" y2="157.725" gradientUnits="userSpaceOnUse">
<stop stop-color="#A0F1FF" stop-opacity="0"/>
<stop offset="0.9887" stop-color="#A0F1FF"/>
</linearGradient>
<linearGradient id="paint7_linear_186_133" x1="764.024" y1="359.01" x2="814.469" y2="359.01" gradientUnits="userSpaceOnUse">
<stop stop-color="#A0F1FF" stop-opacity="0"/>
<stop offset="0.9887" stop-color="#A0F1FF"/>
</linearGradient>
<linearGradient id="paint8_linear_186_133" x1="484.595" y1="140.012" x2="535.041" y2="140.012" gradientUnits="userSpaceOnUse">
<stop stop-color="#A0F1FF" stop-opacity="0"/>
<stop offset="0.9887" stop-color="#B3A0FF"/>
</linearGradient>
<linearGradient id="paint9_linear_186_133" x1="109.012" y1="383.969" x2="159.458" y2="383.969" gradientUnits="userSpaceOnUse">
<stop stop-color="#A0F1FF" stop-opacity="0"/>
<stop offset="0.9887" stop-color="#A0F1FF"/>
</linearGradient>
<linearGradient id="paint10_linear_186_133" x1="0.008579" y1="215.924" x2="50.4539" y2="215.924" gradientUnits="userSpaceOnUse">
<stop stop-color="#A0F1FF" stop-opacity="0"/>
<stop offset="0.9887" stop-color="#A0F1FF"/>
</linearGradient>
<linearGradient id="paint11_linear_186_133" x1="922.441" y1="384.603" x2="1034.72" y2="366.909" gradientUnits="userSpaceOnUse">
<stop stop-color="#68A4FF" stop-opacity="0"/>
<stop offset="0.9887" stop-color="#FF84DC"/>
</linearGradient>
<linearGradient id="paint12_linear_186_133" x1="442.798" y1="498.949" x2="493.243" y2="498.949" gradientUnits="userSpaceOnUse">
<stop stop-color="#A0F1FF" stop-opacity="0"/>
<stop offset="0.9887" stop-color="#DB8DFF"/>
</linearGradient>
</defs>
</svg>
