<svg width="599" height="972" viewBox="0 0 599 972" fill="none" xmlns="http://www.w3.org/2000/svg">
<path d="M18 118C18 52.8304 70.8304 0 136 0L348 0C413.17 0 466 52.8304 466 118V295C466 360.17 413.17 413 348 413H136C70.8304 413 18 360.17 18 295L18 118Z" fill="#00F0FF" style="mix-blend-mode:multiply"/>
<path d="M0.557617 603.165C0.557617 537.996 53.388 485.166 118.558 485.166H410.044C475.214 485.166 528.044 537.996 528.044 603.166V854C528.044 919.17 475.214 972 410.044 972H118.558C53.3881 972 0.557617 919.17 0.557617 854L0.557617 603.165Z" fill="#00F0FF" style="mix-blend-mode:multiply"/>
<path d="M70.9551 155C70.9551 89.8304 123.785 37 188.955 37L480.442 37C545.611 37 598.442 89.8304 598.442 155V790.543C598.442 855.713 545.611 908.543 480.442 908.543H188.955C123.786 908.543 70.9551 855.713 70.9551 790.543L70.9551 155Z" fill="#FA00FF" style="mix-blend-mode:multiply"/>
<path d="M53.1084 667.604C53.1084 652.819 65.0942 640.833 79.8793 640.833H139.37C154.156 640.833 166.141 652.819 166.141 667.604C166.141 682.39 154.156 694.375 139.37 694.375H79.8793C65.0941 694.375 53.1084 682.39 53.1084 667.604Z" fill="#B35AC1" style="mix-blend-mode:hard-light"/>
<path d="M53.1084 588.283C53.1084 573.498 65.0942 561.512 79.8793 561.512H161.184C175.969 561.512 187.955 573.498 187.955 588.283C187.955 603.068 175.969 615.054 161.184 615.054H79.8793C65.0942 615.054 53.1084 603.068 53.1084 588.283Z" fill="#B35AC1" style="mix-blend-mode:hard-light"/>
<path d="M270.25 588.283C270.25 573.498 282.236 561.512 297.021 561.512H375.351C390.136 561.512 402.122 573.498 402.122 588.283C402.122 603.068 390.136 615.054 375.351 615.054H297.021C282.236 615.054 270.25 603.068 270.25 588.283Z" fill="#B35AC1" style="mix-blend-mode:hard-light"/>
<path d="M289.089 667.604C289.089 652.819 301.075 640.833 315.86 640.833H375.351C390.136 640.833 402.122 652.819 402.122 667.604C402.122 682.39 390.136 694.375 375.351 694.375H315.86C301.075 694.375 289.089 682.39 289.089 667.604Z" fill="#B35AC1" style="mix-blend-mode:hard-light"/>
<path d="M53.1084 759.816C53.1084 744.483 65.5381 732.053 80.8709 732.053H138.379C153.712 732.053 166.141 744.483 166.141 759.816C166.141 775.148 153.712 787.578 138.379 787.578H80.8708C65.5381 787.578 53.1084 775.148 53.1084 759.816Z" fill="#B35AC1" style="mix-blend-mode:hard-light"/>
<path d="M289.089 759.816C289.089 744.483 301.519 732.053 316.851 732.053H374.359C389.692 732.053 402.122 744.483 402.122 759.816C402.122 775.148 389.692 787.578 374.359 787.578H316.851C301.519 787.578 289.089 775.148 289.089 759.816Z" fill="#B35AC1" style="mix-blend-mode:hard-light"/>
<path d="M53.1084 852.026C53.1084 837.241 65.0942 825.255 79.8793 825.255H139.37C154.156 825.255 166.141 837.241 166.141 852.026C166.141 866.811 154.156 878.797 139.37 878.797H79.8793C65.0941 878.797 53.1084 866.811 53.1084 852.026Z" fill="#B35AC1" style="mix-blend-mode:hard-light"/>
<path d="M289.089 852.026C289.089 837.241 301.075 825.255 315.86 825.255H375.351C390.136 825.255 402.122 837.241 402.122 852.026C402.122 866.811 390.136 878.797 375.351 878.797H315.86C301.075 878.797 289.089 866.811 289.089 852.026Z" fill="#B35AC1" style="mix-blend-mode:hard-light"/>
</svg>
