<svg width="1014" height="840" viewBox="0 0 1014 840" fill="none" xmlns="http://www.w3.org/2000/svg">
<path d="M937 -1.45649e-06C979.526 -6.52094e-07 1014 34.4741 1014 77L1014 464C1014 506.526 979.526 541 937 541L77 541C34.4741 541 -1.82018e-05 506.526 -1.60031e-05 464L4.0059e-06 77C6.20461e-06 34.474 34.4741 -1.85282e-05 77 -1.77238e-05L937 -1.45649e-06Z" fill="#55E0FF" style="mix-blend-mode:multiply"/>
<path d="M118.596 507C75.4517 507 40.7271 471.556 41.612 428.421L48.4021 97.4209C49.2616 55.5192 83.4754 22 125.386 22L892.246 22C934.148 22 968.358 55.5067 969.229 97.4L973 278.843L973 430C973 472.526 938.526 507 896 507L506.5 507L118.596 507Z" fill="#EB00FF" style="mix-blend-mode:hard-light"/>
<path d="M584 565C626.526 565 661 599.474 661 642L661 763C661 805.526 626.526 840 584 840L431 840C388.474 840 354 805.526 354 763L354 642C354 599.474 388.474 565 431 565L584 565Z" fill="#0D09FF" style="mix-blend-mode:multiply"/>
</svg>
