<svg width="782" height="653" viewBox="0 0 782 653" fill="none" xmlns="http://www.w3.org/2000/svg">
<path d="M184.051 653C82.4108 653 0.0727243 570.589 0.162418 468.949L0.413136 184.837C0.502794 83.2366 82.9239 0.887973 184.524 0.887973L597.796 0.887973C699.416 0.887973 781.746 83.2675 781.684 184.888L781.613 302.886L781.512 469C781.451 570.62 699.021 653 597.401 653L184.051 653Z" fill="#FF15E8" style="mix-blend-mode:multiply"/>
<g style="mix-blend-mode:multiply">
<path d="M58.323 144.002C58.3835 117.643 79.8004 96.1624 106.159 96.023L674.959 93.0144C701.317 92.875 722.636 114.13 722.575 140.489C722.515 166.848 701.098 188.329 674.739 188.468L105.94 191.477C79.5811 191.616 58.2624 170.361 58.323 144.002Z" fill="#00F0FF" style="mix-blend-mode:lighten"/>
</g>
<g style="mix-blend-mode:multiply">
<path d="M515.139 290.8C515.218 256.04 543.461 227.713 578.221 227.529L659.897 227.097C694.656 226.913 722.77 254.942 722.69 289.702C722.61 324.462 694.367 352.79 659.608 352.974L577.932 353.406C543.172 353.589 515.059 325.56 515.139 290.8Z" fill="#00F0FF" style="mix-blend-mode:lighten"/>
</g>
</svg>
