<svg width="1318" height="1053" viewBox="0 0 1318 1053" fill="none" xmlns="http://www.w3.org/2000/svg">
<path d="M1022.39 823.448C950.601 895.394 834.201 895.381 762.427 823.419L588.756 649.293C517.005 577.354 517.018 460.749 588.786 388.826L754.388 222.866C826.167 150.932 942.543 150.932 1014.32 222.866L1085.18 293.877L1188.03 396.953C1259.81 468.887 1259.81 585.515 1188.03 657.449L1022.39 823.448Z" fill="#FF15E8" style="mix-blend-mode:multiply"/>
<path style="mix-blend-mode:multiply" d="M129.967 655.811C58.1882 583.877 58.1883 467.248 129.967 395.314L394.462 130.248C466.241 58.314 582.617 58.3141 654.396 130.248L920.406 396.833C992.184 468.767 992.184 585.395 920.406 657.329L655.911 922.395C584.132 994.329 467.756 994.329 395.977 922.395L129.967 655.811Z" fill="#0E26FF"/>
</svg>
