<svg width="1124" height="874" viewBox="0 0 1124 874" fill="none" xmlns="http://www.w3.org/2000/svg">
<path d="M468.431 563.371C425.091 563.96 389.805 528.676 390.392 485.336L395.933 76.1372C396.503 34.0217 430.806 0.179807 472.926 0.179806L1025.82 0.179785C1067.93 0.179784 1102.23 34.0135 1102.81 76.1235L1105.55 275.441C1105.76 290.796 1101.37 305.863 1092.96 318.706L959.206 522.778C945.18 544.179 921.438 557.215 895.852 557.562L468.431 563.371Z" fill="#FF00E5" style="mix-blend-mode:multiply"/>
<path d="M922.877 331.256C991.63 311.04 1048.29 387.467 1008.97 447.379L751.773 839.247C737.539 860.934 713.341 873.997 687.4 873.997L193.131 873.997C123.538 873.997 89.6503 789 140.153 741.118L401.467 493.37C410.314 484.981 421.027 478.814 432.724 475.375L922.877 331.256Z" fill="#0E26FF" style="mix-blend-mode:multiply"/>
</svg>
