<svg width="1990" height="1102" viewBox="0 0 1990 1102" fill="none" xmlns="http://www.w3.org/2000/svg">
<g opacity="0.11">
<path opacity="0.11" d="M449.644 786.424C488.489 786.504 520.043 755.079 520.123 716.234C520.204 677.389 488.779 645.835 449.934 645.754C411.089 645.674 379.534 677.099 379.454 715.944C379.374 754.789 410.799 786.344 449.644 786.424Z" fill="url(#paint0_linear_227_2)"/>
<path opacity="0.11" d="M526.988 1079.25C604.551 1079.41 667.558 1016.66 667.718 939.098C667.878 861.535 605.13 798.529 527.567 798.369C450.005 798.209 386.998 860.956 386.838 938.519C386.678 1016.08 449.425 1079.09 526.988 1079.25Z" fill="url(#paint1_linear_227_2)"/>
<path opacity="0.11" d="M1757.03 586.975C1884.74 587.238 1988.49 483.918 1988.76 356.202C1989.02 228.487 1885.7 124.739 1757.98 124.476C1630.27 124.213 1526.52 227.533 1526.26 355.248C1525.99 482.964 1629.31 586.711 1757.03 586.975Z" fill="url(#paint2_linear_227_2)"/>
<path opacity="0.11" d="M1772.3 466.23C1706.72 400.381 1600.18 400.161 1534.33 465.739C1468.48 531.316 1468.26 637.858 1533.84 703.706C1599.42 769.555 1705.96 769.775 1771.81 704.197C1837.66 638.62 1837.88 532.078 1772.3 466.23Z" fill="url(#paint3_linear_227_2)"/>
<path opacity="0.11" d="M157.714 744.344C209.674 744.451 251.883 702.416 251.99 650.456C252.097 598.496 210.062 556.287 158.102 556.179C106.142 556.072 63.9327 598.107 63.8255 650.068C63.7183 702.028 105.754 744.237 157.714 744.344Z" fill="url(#paint4_linear_227_2)"/>
</g>
<path d="M229.811 311.243C268.94 360.903 340.919 369.441 390.579 330.311C440.24 291.182 448.777 219.204 409.648 169.543C370.519 119.882 298.54 111.345 248.88 150.474C199.219 189.603 190.681 261.582 229.811 311.243Z" fill="url(#paint5_linear_227_2)"/>
<path d="M1849.48 417.956C1912.7 417.956 1963.96 366.703 1963.96 303.478C1963.96 240.254 1912.7 189.001 1849.48 189.001C1786.26 189.001 1735 240.254 1735 303.478C1735 366.703 1786.26 417.956 1849.48 417.956Z" fill="url(#paint6_linear_227_2)"/>
<path d="M210 1102C238.167 1102 261 1078.05 261 1048.5C261 1018.95 238.167 995 210 995C181.833 995 159 1018.95 159 1048.5C159 1078.05 181.833 1102 210 1102Z" fill="url(#paint7_linear_227_2)"/>
<path d="M1577 663C1605.17 663 1628 639.047 1628 609.5C1628 579.953 1605.17 556 1577 556C1548.83 556 1526 579.953 1526 609.5C1526 639.047 1548.83 663 1577 663Z" fill="url(#paint8_linear_227_2)"/>
<path d="M498.5 997C536.884 997 568 965.884 568 927.5C568 889.116 536.884 858 498.5 858C460.116 858 429 889.116 429 927.5C429 965.884 460.116 997 498.5 997Z" fill="url(#paint9_linear_227_2)"/>
<path d="M190.424 715.746C247.939 788.741 353.739 801.29 426.735 743.775C499.731 686.259 512.28 580.459 454.764 507.463C397.249 434.468 291.448 421.919 218.453 479.434C145.457 536.95 132.908 642.75 190.424 715.746Z" fill="url(#paint10_linear_227_2)"/>
<path d="M1922.87 544.862C1886.13 508.121 1826.56 508.121 1789.82 544.862C1753.07 581.604 1753.07 641.174 1789.82 677.915C1826.56 714.657 1886.13 714.657 1922.87 677.915C1959.61 641.174 1959.61 581.604 1922.87 544.862Z" fill="url(#paint11_linear_227_2)"/>
<path d="M1620.76 769.455C1584.02 732.714 1524.45 732.714 1487.71 769.455C1450.96 806.197 1450.96 865.766 1487.71 902.508C1524.45 939.249 1584.02 939.249 1620.76 902.508C1657.5 865.766 1657.5 806.197 1620.76 769.455Z" fill="url(#paint12_linear_227_2)"/>
<path d="M287.02 203.401C270.796 203.368 257.632 190.14 257.666 173.926C257.699 157.712 270.927 144.538 287.142 144.571C303.366 144.605 316.529 157.833 316.496 174.047C316.463 190.261 303.234 203.435 287.02 203.401ZM287.139 145.689C271.544 145.657 258.826 158.323 258.793 173.918C258.761 189.514 271.427 202.232 287.023 202.264C302.618 202.296 315.336 189.63 315.368 174.035C315.401 158.439 302.735 145.721 287.139 145.689Z" fill="url(#paint13_linear_227_2)"/>
<path d="M1759.47 535.867C1730.55 535.867 1707.04 512.349 1707.04 483.432C1707.04 454.516 1730.56 430.998 1759.47 430.998C1788.38 430.998 1811.91 454.526 1811.91 483.432C1811.91 512.339 1788.39 535.867 1759.47 535.867ZM1759.47 433.004C1731.66 433.004 1709.04 455.624 1709.04 483.432C1709.04 511.241 1731.66 533.861 1759.47 533.861C1787.28 533.861 1809.9 511.241 1809.9 483.432C1809.9 455.624 1787.28 433.004 1759.47 433.004Z" fill="url(#paint14_linear_227_2)"/>
<path d="M364.903 765.163C329.63 765.163 300.924 736.466 300.924 701.184C300.924 665.902 329.621 637.205 364.903 637.205C400.175 637.205 428.882 665.902 428.882 701.184C428.882 736.466 400.175 765.163 364.903 765.163ZM364.903 639.67C330.978 639.67 303.378 667.269 303.378 701.194C303.378 735.119 330.978 762.718 364.903 762.718C398.828 762.718 426.427 735.119 426.427 701.194C426.427 667.269 398.828 639.67 364.903 639.67Z" fill="url(#paint15_linear_227_2)"/>
<path d="M376.962 956.5C333.528 956.41 298.259 921.005 298.348 877.571C298.438 834.137 333.843 798.868 377.287 798.957C420.731 799.047 455.98 834.452 455.89 877.896C455.811 921.32 420.396 956.589 376.962 956.5ZM377.281 801.971C335.513 801.885 301.458 835.799 301.372 877.567C301.285 919.335 335.2 953.39 376.968 953.476C418.736 953.562 452.791 919.647 452.877 877.88C452.963 836.112 419.048 802.057 377.281 801.971Z" fill="url(#paint16_linear_227_2)"/>
<path d="M181.094 406.589C164.87 406.556 151.707 393.327 151.74 377.113C151.774 360.889 165.002 347.725 181.216 347.759C197.43 347.792 210.604 361.02 210.57 377.235C210.537 393.449 197.319 406.622 181.094 406.589ZM181.213 348.886C165.618 348.854 152.9 361.52 152.868 377.116C152.835 392.711 165.501 405.429 181.097 405.462C196.692 405.494 209.41 392.828 209.443 377.232C209.475 361.637 196.809 348.919 181.213 348.886Z" fill="url(#paint17_linear_227_2)"/>
<path d="M1898.13 568.048C1909.61 579.521 1909.61 598.175 1898.13 609.648C1886.66 621.12 1868 621.113 1856.54 609.648C1845.06 598.175 1845.07 579.514 1856.54 568.048C1868.01 556.576 1886.67 556.583 1898.13 568.048ZM1857.33 608.85C1868.36 619.878 1886.31 619.878 1897.34 608.85C1908.37 597.823 1908.37 579.873 1897.34 568.846C1886.31 557.818 1868.36 557.818 1857.33 568.846C1846.3 579.873 1846.3 597.823 1857.33 608.85Z" fill="url(#paint18_linear_227_2)"/>
<path d="M264.838 59.1974C248.613 59.1639 235.45 45.9359 235.483 29.7217C235.517 13.5075 248.745 0.333867 264.959 0.367307C281.173 0.400748 294.347 13.6288 294.313 29.843C294.28 46.0572 281.062 59.2309 264.838 59.1974ZM264.957 1.49479C249.361 1.46263 236.643 14.1284 236.611 29.724C236.579 45.3196 249.244 58.0377 264.84 58.0699C280.436 58.102 293.154 45.4362 293.186 29.8407C293.218 14.2351 280.562 1.52698 264.957 1.49479Z" fill="url(#paint19_linear_227_2)"/>
<path d="M1430.95 728.725C1438.84 736.62 1438.84 749.461 1430.95 757.356C1423.05 765.251 1410.21 765.251 1402.32 757.356C1394.42 749.461 1394.42 736.62 1402.32 728.725C1410.21 720.83 1423.05 720.83 1430.95 728.725ZM1402.87 756.806C1410.46 764.398 1422.8 764.398 1430.4 756.806C1437.99 749.214 1437.99 736.867 1430.4 729.275C1422.8 721.684 1410.46 721.684 1402.87 729.275C1395.27 736.867 1395.27 749.214 1402.87 756.806Z" fill="url(#paint20_linear_227_2)"/>
<path d="M1640.14 442.489C1628.97 442.489 1619.89 433.409 1619.89 422.243C1619.89 411.078 1628.97 401.998 1640.14 401.998C1651.3 401.998 1660.38 411.078 1660.38 422.243C1660.38 433.409 1651.3 442.489 1640.14 442.489ZM1640.14 402.786C1629.4 402.786 1620.67 411.517 1620.67 422.253C1620.67 432.99 1629.4 441.72 1640.14 441.72C1650.87 441.72 1659.61 432.99 1659.61 422.253C1659.61 411.517 1650.87 402.786 1640.14 402.786Z" fill="url(#paint21_linear_227_2)"/>
<path d="M270.383 730.915C259.218 730.892 250.157 721.793 250.18 710.628C250.203 699.463 259.302 690.402 270.467 690.425C281.632 690.448 290.694 699.546 290.671 710.712C290.647 721.877 281.549 730.938 270.383 730.915ZM270.465 691.203C259.729 691.181 250.98 699.893 250.958 710.63C250.936 721.366 259.649 730.115 270.385 730.137C281.121 730.159 289.87 721.446 289.892 710.71C289.914 699.984 281.202 691.225 270.465 691.203Z" fill="url(#paint22_linear_227_2)"/>
<path d="M20.2463 110.775C9.08096 110.775 0.000976562 101.695 0.000976562 90.5295C0.000976562 79.3642 9.08096 70.2842 20.2463 70.2842C31.4117 70.2842 40.4917 79.3642 40.4917 90.5295C40.4917 101.695 31.4117 110.775 20.2463 110.775ZM20.2463 71.0724C9.51001 71.0724 0.779258 79.8032 0.779258 90.5395C0.779258 101.276 9.51001 110.007 20.2463 110.007C30.9826 110.007 39.7134 101.276 39.7134 90.5395C39.7134 79.8032 30.9826 71.0724 20.2463 71.0724Z" fill="url(#paint23_linear_227_2)"/>
<path d="M1606.69 572.797C1627.22 593.336 1627.23 626.758 1606.69 647.304C1586.15 667.842 1552.73 667.849 1532.18 647.304C1511.64 626.765 1511.63 593.343 1532.18 572.797C1552.73 552.252 1586.15 552.259 1606.69 572.797ZM1533.62 645.864C1553.37 665.613 1585.51 665.613 1605.26 645.864C1625.01 626.116 1625.01 593.971 1605.26 574.223C1585.51 554.474 1553.37 554.474 1533.62 574.223C1513.86 593.978 1513.86 626.109 1533.62 645.864Z" fill="url(#paint24_linear_227_2)"/>
<path d="M1823.86 612.886C1831.75 620.781 1831.75 633.622 1823.86 641.517C1815.96 649.413 1803.12 649.412 1795.22 641.517C1787.33 633.622 1787.33 620.781 1795.22 612.886C1803.12 604.991 1815.96 604.991 1823.86 612.886ZM1795.77 640.967C1803.37 648.559 1815.71 648.559 1823.3 640.967C1830.9 633.375 1830.9 621.028 1823.3 613.436C1815.71 605.845 1803.37 605.845 1795.77 613.436C1788.19 621.021 1788.18 633.375 1795.77 640.967Z" fill="url(#paint25_linear_227_2)"/>
<defs>
<linearGradient id="paint0_linear_227_2" x1="390.563" y1="656.626" x2="500.437" y2="766.954" gradientUnits="userSpaceOnUse">
<stop stop-color="#A0F1FF" stop-opacity="0"/>
<stop offset="0.9933" stop-color="#E1A8FF"/>
</linearGradient>
<linearGradient id="paint1_linear_227_2" x1="632" y1="1043.97" x2="371.788" y2="782.682" gradientUnits="userSpaceOnUse">
<stop stop-color="#A0F1FF" stop-opacity="0"/>
<stop offset="0.9933" stop-color="#E1A8FF"/>
</linearGradient>
<linearGradient id="paint2_linear_227_2" x1="1584.15" y1="177.618" x2="1924.5" y2="496.82" gradientUnits="userSpaceOnUse">
<stop stop-color="#A0F1FF" stop-opacity="0"/>
<stop offset="0.708426" stop-color="#DD9CFF"/>
</linearGradient>
<linearGradient id="paint3_linear_227_2" x1="1653.55" y1="351.579" x2="1652.58" y2="819.029" gradientUnits="userSpaceOnUse">
<stop stop-color="#A0F1FF" stop-opacity="0"/>
<stop offset="0.9933" stop-color="#E1A8FF"/>
</linearGradient>
<linearGradient id="paint4_linear_227_2" x1="78.6909" y1="570.714" x2="225.662" y2="718.293" gradientUnits="userSpaceOnUse">
<stop stop-color="#A0F1FF" stop-opacity="0"/>
<stop offset="0.9933" stop-color="#E1A8FF"/>
</linearGradient>
<linearGradient id="paint5_linear_227_2" x1="128.67" y1="196.995" x2="432.43" y2="265.994" gradientUnits="userSpaceOnUse">
<stop offset="0.00518829" stop-color="#FF7FFF" stop-opacity="0"/>
<stop offset="0.061" stop-color="#F589FF" stop-opacity="0.0566"/>
<stop offset="0.3721" stop-color="#C0BBFF" stop-opacity="0.3722"/>
<stop offset="0.642" stop-color="#99E0FF" stop-opacity="0.6459"/>
<stop offset="0.8572" stop-color="#82F7FF" stop-opacity="0.8643"/>
<stop offset="0.991" stop-color="#79FFFF"/>
</linearGradient>
<linearGradient id="paint6_linear_227_2" x1="1971.76" y1="185.654" x2="1727.79" y2="420.724" gradientUnits="userSpaceOnUse">
<stop offset="0.00404646" stop-color="#232BFF" stop-opacity="0"/>
<stop offset="0.0258" stop-color="#2731FF" stop-opacity="0.0221"/>
<stop offset="0.2871" stop-color="#5175FF" stop-opacity="0.2875"/>
<stop offset="0.5232" stop-color="#73AAFF" stop-opacity="0.5272"/>
<stop offset="0.7262" stop-color="#8CD1FF" stop-opacity="0.7334"/>
<stop offset="0.8881" stop-color="#9BE8FF" stop-opacity="0.8978"/>
<stop offset="0.9887" stop-color="#A0F1FF"/>
</linearGradient>
<linearGradient id="paint7_linear_227_2" x1="180.779" y1="1077.84" x2="272.772" y2="993.91" gradientUnits="userSpaceOnUse">
<stop offset="0.00404646" stop-color="#C92BFF" stop-opacity="0"/>
<stop offset="0.0258" stop-color="#C831FF" stop-opacity="0.0221"/>
<stop offset="0.2871" stop-color="#BA75FF" stop-opacity="0.2875"/>
<stop offset="0.5232" stop-color="#8B85EC" stop-opacity="0.5272"/>
<stop offset="0.7262" stop-color="#FFA7FB" stop-opacity="0.7334"/>
<stop offset="0.8881" stop-color="#E1A2FF" stop-opacity="0.8978"/>
<stop offset="0.9887" stop-color="#D479FF"/>
</linearGradient>
<linearGradient id="paint8_linear_227_2" x1="1547.78" y1="638.838" x2="1639.77" y2="554.91" gradientUnits="userSpaceOnUse">
<stop offset="0.00404646" stop-color="#C92BFF" stop-opacity="0"/>
<stop offset="0.0258" stop-color="#C831FF" stop-opacity="0.0221"/>
<stop offset="0.2871" stop-color="#757BFF" stop-opacity="0.2875"/>
<stop offset="0.5232" stop-color="#85B4EC" stop-opacity="0.5272"/>
<stop offset="0.586603" stop-color="#A599F5" stop-opacity="0.646476"/>
<stop offset="0.7262" stop-color="#A7B5FF" stop-opacity="0.7334"/>
<stop offset="0.8881" stop-color="#E5AFF9" stop-opacity="0.8978"/>
<stop offset="0.9887" stop-color="#D479FF"/>
</linearGradient>
<linearGradient id="paint9_linear_227_2" x1="458.679" y1="965.612" x2="578.572" y2="850.868" gradientUnits="userSpaceOnUse">
<stop offset="0.00404646" stop-color="#C82BFF" stop-opacity="0"/>
<stop offset="0.0258" stop-color="#C831FF" stop-opacity="0.0221"/>
<stop offset="0.2871" stop-color="#75ACFF" stop-opacity="0.2875"/>
<stop offset="0.5232" stop-color="#85AEEC" stop-opacity="0.5272"/>
<stop offset="0.7262" stop-color="#A7B0FF" stop-opacity="0.7334"/>
<stop offset="0.8881" stop-color="#A2EEFF" stop-opacity="0.8978"/>
<stop offset="0.9887" stop-color="#79A7FF"/>
</linearGradient>
<linearGradient id="paint10_linear_227_2" x1="95.1541" y1="584.622" x2="472.795" y2="629.414" gradientUnits="userSpaceOnUse">
<stop stop-color="#A0F1FF" stop-opacity="0"/>
<stop offset="0.9887" stop-color="#A0F1FF"/>
</linearGradient>
<linearGradient id="paint11_linear_227_2" x1="2013.01" y1="589.281" x2="1705.13" y2="632.725" gradientUnits="userSpaceOnUse">
<stop offset="0.00404646" stop-color="#C92BFF" stop-opacity="0"/>
<stop offset="0.0258" stop-color="#C831FF" stop-opacity="0.0221"/>
<stop offset="0.2871" stop-color="#BA75FF" stop-opacity="0.2875"/>
<stop offset="0.5232" stop-color="#AFAAFF" stop-opacity="0.5272"/>
<stop offset="0.7262" stop-color="#A7D1FF" stop-opacity="0.7334"/>
<stop offset="0.8881" stop-color="#A2E8FF" stop-opacity="0.8978"/>
<stop offset="0.9887" stop-color="#A0F1FF"/>
</linearGradient>
<linearGradient id="paint12_linear_227_2" x1="1710.9" y1="813.874" x2="1403.02" y2="857.318" gradientUnits="userSpaceOnUse">
<stop offset="0.00404646" stop-color="#C92BFF" stop-opacity="0"/>
<stop offset="0.0258" stop-color="#C831FF" stop-opacity="0.0221"/>
<stop offset="0.2871" stop-color="#BA75FF" stop-opacity="0.2875"/>
<stop offset="0.5232" stop-color="#AFAAFF" stop-opacity="0.5272"/>
<stop offset="0.7262" stop-color="#A7D1FF" stop-opacity="0.7334"/>
<stop offset="0.8881" stop-color="#A2E8FF" stop-opacity="0.8978"/>
<stop offset="0.9887" stop-color="#A0F1FF"/>
</linearGradient>
<linearGradient id="paint13_linear_227_2" x1="257.661" y1="173.921" x2="316.494" y2="174.042" gradientUnits="userSpaceOnUse">
<stop stop-color="#A0F1FF" stop-opacity="0"/>
<stop offset="0.9887" stop-color="#A0F1FF"/>
</linearGradient>
<linearGradient id="paint14_linear_227_2" x1="1707.04" y1="483.427" x2="1811.91" y2="483.427" gradientUnits="userSpaceOnUse">
<stop stop-color="#A0F1FF" stop-opacity="0"/>
<stop offset="0.9887" stop-color="#A0F1FF"/>
</linearGradient>
<linearGradient id="paint15_linear_227_2" x1="300.925" y1="701.189" x2="428.877" y2="701.189" gradientUnits="userSpaceOnUse">
<stop stop-color="#A0F1FF" stop-opacity="0"/>
<stop offset="0.9887" stop-color="#A0F1FF"/>
</linearGradient>
<linearGradient id="paint16_linear_227_2" x1="298.354" y1="877.562" x2="455.896" y2="877.887" gradientUnits="userSpaceOnUse">
<stop stop-color="#A0F1FF" stop-opacity="0"/>
<stop offset="0.9887" stop-color="#A0F1FF"/>
</linearGradient>
<linearGradient id="paint17_linear_227_2" x1="151.74" y1="377.111" x2="210.573" y2="377.233" gradientUnits="userSpaceOnUse">
<stop stop-color="#A0F1FF" stop-opacity="0"/>
<stop offset="0.9887" stop-color="#A0F1FF"/>
</linearGradient>
<linearGradient id="paint18_linear_227_2" x1="1898.14" y1="609.649" x2="1856.54" y2="568.048" gradientUnits="userSpaceOnUse">
<stop stop-color="#A0F1FF" stop-opacity="0"/>
<stop offset="0.9887" stop-color="#A0F1FF"/>
</linearGradient>
<linearGradient id="paint19_linear_227_2" x1="235.487" y1="29.718" x2="294.319" y2="29.8393" gradientUnits="userSpaceOnUse">
<stop stop-color="#A0F1FF" stop-opacity="0"/>
<stop offset="0.9887" stop-color="#A0F1FF"/>
</linearGradient>
<linearGradient id="paint20_linear_227_2" x1="1430.94" y1="757.352" x2="1402.32" y2="728.726" gradientUnits="userSpaceOnUse">
<stop stop-color="#A0F1FF" stop-opacity="0"/>
<stop offset="0.9887" stop-color="#A0F1FF"/>
</linearGradient>
<linearGradient id="paint21_linear_227_2" x1="1619.9" y1="422.247" x2="1660.38" y2="422.247" gradientUnits="userSpaceOnUse">
<stop stop-color="#A0F1FF" stop-opacity="0"/>
<stop offset="0.9887" stop-color="#A0F1FF"/>
</linearGradient>
<linearGradient id="paint22_linear_227_2" x1="250.187" y1="710.63" x2="290.671" y2="710.713" gradientUnits="userSpaceOnUse">
<stop stop-color="#A0F1FF" stop-opacity="0"/>
<stop offset="0.9887" stop-color="#A0F1FF"/>
</linearGradient>
<linearGradient id="paint23_linear_227_2" x1="0.00786138" y1="90.5366" x2="40.4913" y2="90.5366" gradientUnits="userSpaceOnUse">
<stop stop-color="#A0F1FF" stop-opacity="0"/>
<stop offset="0.9887" stop-color="#A0F1FF"/>
</linearGradient>
<linearGradient id="paint24_linear_227_2" x1="1606.69" y1="647.293" x2="1532.19" y2="572.793" gradientUnits="userSpaceOnUse">
<stop stop-color="#A0F1FF" stop-opacity="0"/>
<stop offset="0.9887" stop-color="#A0F1FF"/>
</linearGradient>
<linearGradient id="paint25_linear_227_2" x1="1823.85" y1="641.511" x2="1795.22" y2="612.885" gradientUnits="userSpaceOnUse">
<stop stop-color="#A0F1FF" stop-opacity="0"/>
<stop offset="0.9887" stop-color="#A0F1FF"/>
</linearGradient>
</defs>
</svg>
