<svg width="200" height="287" viewBox="0 0 200 287" fill="none" xmlns="http://www.w3.org/2000/svg">
<rect y="91.2904" width="199.245" height="195.71" rx="43" fill="url(#paint0_linear_489:10)"/>
<path d="M4.95733e-05 83.6875C0.000170865 61.9657 5.17761 49.1617 19.2818 32.6418C40.0126 8.36052 64.8841 1.22369 96.8104 0.987639C129.317 0.747295 155.123 7.89694 176.428 30.7137C191.695 47.0633 199.245 61.3182 199.245 83.6875C199.245 101.735 199.245 131.461 199.245 131.461L187.354 107.841C187.354 107.841 183.068 58.7251 162.288 39.1259C142.693 20.6443 123.74 16.8577 96.8104 17.4473C70.3608 18.0264 52.0061 22.3837 33.3414 41.1332C13.5081 61.0566 12.2118 109.447 12.2118 109.447L4.95733e-05 131.461C4.95733e-05 131.461 -6.19666e-05 103.663 4.95733e-05 83.6875Z" fill="url(#paint1_linear_489:10)"/>
<rect x="30.5293" y="121.177" width="137.864" height="135.936" rx="42" fill="white"/>
<path d="M94.6362 207.664C94.6362 213.744 92.4282 218.48 88.0122 221.872C83.5962 225.264 77.6442 226.96 70.1561 226.96C66.3161 226.96 62.7641 226.672 59.5001 226.096C56.2361 225.52 53.5161 224.72 51.3401 223.696V215.44C53.6441 216.464 56.4921 217.392 59.8841 218.224C63.3401 219.056 66.8921 219.472 70.5402 219.472C75.6602 219.472 79.5002 218.48 82.0602 216.496C84.6842 214.512 85.9962 211.824 85.9962 208.432C85.9962 206.192 85.5162 204.304 84.5562 202.768C83.5962 201.232 81.9322 199.824 79.5642 198.544C77.2602 197.2 74.0282 195.792 69.8682 194.32C64.0442 192.208 59.6281 189.616 56.6201 186.544C53.6761 183.472 52.2041 179.28 52.2041 173.968C52.2041 170.32 53.1321 167.216 54.9881 164.656C56.8441 162.032 59.4042 160.016 62.6682 158.608C65.9962 157.2 69.8042 156.496 74.0922 156.496C77.8681 156.496 81.3242 156.848 84.4602 157.552C87.5962 158.256 90.4442 159.184 93.0042 160.336L90.3162 167.728C87.9482 166.704 85.3562 165.84 82.5402 165.136C79.7881 164.432 76.9081 164.08 73.9002 164.08C69.6122 164.08 66.3801 165.008 64.2041 166.864C62.0281 168.656 60.9401 171.056 60.9401 174.064C60.9401 176.368 61.4201 178.288 62.3801 179.824C63.3401 181.36 64.9081 182.736 67.0841 183.952C69.2601 185.168 72.2042 186.48 75.9162 187.888C79.9481 189.36 83.3401 190.96 86.0922 192.688C88.9082 194.352 91.0202 196.368 92.4282 198.736C93.9002 201.104 94.6362 204.08 94.6362 207.664ZM128.7 164.08C121.34 164.08 115.548 166.544 111.324 171.472C107.1 176.4 104.988 183.152 104.988 191.728C104.988 200.24 106.94 206.992 110.844 211.984C114.812 216.912 120.732 219.376 128.604 219.376C131.612 219.376 134.46 219.12 137.148 218.608C139.836 218.096 142.46 217.456 145.02 216.688V224.176C142.46 225.136 139.804 225.84 137.052 226.288C134.364 226.736 131.132 226.96 127.356 226.96C120.38 226.96 114.556 225.52 109.884 222.64C105.212 219.76 101.692 215.664 99.3237 210.352C97.0197 205.04 95.8677 198.8 95.8677 191.632C95.8677 184.72 97.1157 178.64 99.6117 173.392C102.172 168.08 105.916 163.952 110.844 161.008C115.772 158 121.756 156.496 128.796 156.496C136.028 156.496 142.332 157.84 147.708 160.528L144.252 167.824C142.14 166.864 139.772 166 137.148 165.232C134.588 164.464 131.772 164.08 128.7 164.08Z" fill="url(#paint2_linear_489:10)"/>
<defs>
<linearGradient id="paint0_linear_489:10" x1="-7.34571e-07" y1="128.408" x2="180.445" y2="268.2" gradientUnits="userSpaceOnUse">
<stop stop-color="#E33CFE" stop-opacity="0.55"/>
<stop offset="0.807292" stop-color="#0F36BE" stop-opacity="0.59"/>
</linearGradient>
<linearGradient id="paint1_linear_489:10" x1="35.1892" y1="66.2242" x2="270.105" y2="153.956" gradientUnits="userSpaceOnUse">
<stop stop-color="#E388F1" stop-opacity="0.88"/>
<stop offset="0.857593" stop-color="#6280E7"/>
</linearGradient>
<linearGradient id="paint2_linear_489:10" x1="0.984024" y1="135.909" x2="159.205" y2="279.039" gradientUnits="userSpaceOnUse">
<stop offset="0.125765" stop-color="#DE57F4"/>
<stop offset="0.909276" stop-color="#2954EB" stop-opacity="0.54"/>
</linearGradient>
</defs>
</svg>
