<svg xmlns="http://www.w3.org/2000/svg" xmlns:xlink="http://www.w3.org/1999/xlink" viewBox="0 0 643.38 78.26"><defs><style>.cls-1{isolation:isolate;}.cls-2{mix-blend-mode:lighten;}.cls-10,.cls-11,.cls-12,.cls-13,.cls-14,.cls-15,.cls-3,.cls-4,.cls-5,.cls-6,.cls-7,.cls-8,.cls-9{stroke:#fff;stroke-miterlimit:10;}.cls-3{fill:url(#Namnlös_övertoning_122);}.cls-4{fill:url(#Namnlös_övertoning_122-2);}.cls-5{fill:url(#Namnlös_övertoning_122-3);}.cls-6{fill:url(#Namnlös_övertoning_122-4);}.cls-7{fill:url(#Namnlös_övertoning_122-5);}.cls-8{fill:url(#Namnlös_övertoning_122-6);}.cls-9{fill:url(#Namnlös_övertoning_122-7);}.cls-10{fill:url(#Namnlös_övertoning_122-8);}.cls-11{fill:url(#Namnlös_övertoning_122-9);}.cls-12{fill:url(#Namnlös_övertoning_122-10);}.cls-13{fill:url(#Namnlös_övertoning_122-11);}.cls-14{fill:url(#Namnlös_övertoning_122-12);}.cls-15{fill:url(#Namnlös_övertoning_122-13);}</style><linearGradient id="Namnlös_övertoning_122" x1="69.73" y1="711.88" x2="120.47" y2="711.88" gradientUnits="userSpaceOnUse"><stop offset="0.06" stop-color="#4c4d9a"/><stop offset="0.17" stop-color="#653c92" stop-opacity="0.93"/><stop offset="0.37" stop-color="#882486" stop-opacity="0.84"/><stop offset="0.49" stop-color="#951b81" stop-opacity="0.8"/><stop offset="0.59" stop-color="#b0146d" stop-opacity="0.8"/><stop offset="0.71" stop-color="#c50f5e" stop-opacity="0.8"/><stop offset="0.84" stop-color="#d20c55" stop-opacity="0.8"/><stop offset="1" stop-color="#d60b52" stop-opacity="0.8"/></linearGradient><linearGradient id="Namnlös_övertoning_122-2" x1="134.33" y1="711.86" x2="213.11" y2="711.86" xlink:href="#Namnlös_övertoning_122"/><linearGradient id="Namnlös_övertoning_122-3" x1="300.84" y1="711.81" x2="356.01" y2="711.81" xlink:href="#Namnlös_övertoning_122"/><linearGradient id="Namnlös_övertoning_122-4" x1="356.65" y1="711.86" x2="414.51" y2="711.86" xlink:href="#Namnlös_övertoning_122"/><linearGradient id="Namnlös_övertoning_122-5" x1="442.89" y1="711.9" x2="508.9" y2="711.9" xlink:href="#Namnlös_övertoning_122"/><linearGradient id="Namnlös_övertoning_122-6" x1="587.35" y1="711.83" x2="638.34" y2="711.83" xlink:href="#Namnlös_övertoning_122"/><linearGradient id="Namnlös_övertoning_122-7" x1="651.68" y1="711.86" x2="711.92" y2="711.86" xlink:href="#Namnlös_övertoning_122"/><linearGradient id="Namnlös_övertoning_122-8" x1="246.72" y1="690.79" x2="285.19" y2="690.79" xlink:href="#Namnlös_övertoning_122"/><linearGradient id="Namnlös_övertoning_122-9" x1="146.94" y1="60.16" x2="185.25" y2="60.16" xlink:href="#Namnlös_övertoning_122"/><linearGradient id="Namnlös_övertoning_122-10" x1="203.13" y1="60.16" x2="216.15" y2="60.16" xlink:href="#Namnlös_övertoning_122"/><linearGradient id="Namnlös_övertoning_122-11" x1="433.99" y1="60.16" x2="472.33" y2="60.16" xlink:href="#Namnlös_övertoning_122"/><linearGradient id="Namnlös_övertoning_122-12" x1="533.76" y1="690.79" x2="572.24" y2="690.79" xlink:href="#Namnlös_övertoning_122"/><linearGradient id="Namnlös_övertoning_122-13" x1="490.19" y1="60.16" x2="503.2" y2="60.16" xlink:href="#Namnlös_övertoning_122"/></defs><title>Smartcashtext-logo</title><g class="cls-1"><g id="Layer_1" data-name="Layer 1"><g class="cls-2"><path class="cls-3" d="M110.55,691c-11.75-14-34-.4-21,10.21,8.88,6,30.21,5,30.91,24.83,1.15,27.09-36.32,31.17-50.71,14.33l9.82-9.49C97.7,752.26,122.86,723.7,93.17,717c-4.08-1.32-8.34-2.67-12.07-4.89-5.17-3.1-8.95-7.9-9-16.61.15-23.56,33.29-28.2,48-14.54Z" transform="translate(-69.04 -672.77)"/><path class="cls-4" d="M134.33,675.27h19.85l19.53,51.27,19.74-51.27h19.66v73.17H200.7V687.67h-.22l-22.2,60.77h-9.14L147,687.67h-.24v60.77h-12.4Z" transform="translate(-69.04 -672.77)"/><path class="cls-5" d="M300.84,675.27c8.54.34,29.41-1.08,37.87,1.52,20.73,4.49,19.76,36.68-2.13,39.3L356,748.44h-15.7l-17-31h-9.53v31h-13Zm23.1,31c16,1.81,21.16-12.4,10.69-18.43-5.52-2.38-15.12-1.15-20.81-1.44v19.87Z" transform="translate(-69.04 -672.77)"/><path class="cls-6" d="M379,687H356.65V675.27h57.86V687H392.09v61.42H379Z" transform="translate(-69.04 -672.77)"/><path class="cls-7" d="M497.14,692.42c-15.63-16.76-40.71-2.3-40.52,17.87-1.81,23.84,26.16,38.81,41.55,19.35l10.73,7.65c-20,25.8-63.49,11-65.63-19.73-5.15-41.85,43.06-57,64-32.58Z" transform="translate(-69.04 -672.77)"/><path class="cls-8" d="M628.22,691c-19.36-17.86-40.62,9.35-7.78,15.41,4.83,1.64,9.6,3.7,13,7.38,20.53,33.65-29.83,47.56-46.14,26.58l9.87-9.49c18.09,21.39,43.26-7.18,13.59-13.86-4.08-1.32-8.33-2.67-12.06-4.89-5.17-3.1-9-7.9-9-16.61.14-23.57,33.26-28.19,48-14.54Z" transform="translate(-69.04 -672.77)"/><path class="cls-9" d="M651.68,675.27h13V704.4H698.9V675.27h13v73.17h-13V716.19H664.69v32.25h-13Z" transform="translate(-69.04 -672.77)"/><path class="cls-10" d="M272.17,693v13.27h13v-31H269.31l-22.59,31h15.75Z" transform="translate(-69.04 -672.77)"/><polygon class="cls-11" points="146.94 75.67 162.49 75.67 185.25 44.65 169.54 44.65 146.94 75.67"/><rect class="cls-12" x="203.13" y="44.65" width="13.03" height="31.03"/><polygon class="cls-13" points="433.99 75.67 449.55 75.67 472.33 44.65 456.6 44.65 433.99 75.67"/><path class="cls-14" d="M559.23,693.06v13.25h13v-31H556.38l-22.62,31H549.5Z" transform="translate(-69.04 -672.77)"/><rect class="cls-15" x="490.19" y="44.65" width="13.01" height="31.03"/></g></g></g></svg>