<svg id="Layer_1" data-name="Layer 1" xmlns="http://www.w3.org/2000/svg" viewBox="0 0 643.38 77.9"><defs><style>.cls-1{fill:#fff;stroke:#fff;stroke-miterlimit:10;}</style></defs><title>smart-cash-text</title><path class="cls-1" d="M110.55,691c-2.77-4-7.73-5.82-12.81-5.82-6,0-12,2.7-12,9.42,0,14.69,34.7,6.31,34.7,32.36,0,15.69-12.39,23.35-26.74,23.35-9.1,0-18-2.79-24-9.94l9.82-9.49A17.24,17.24,0,0,0,94,738.53c6,0,12.82-3.3,12.82-10,0-16-34.76-6.84-34.76-33,0-15.1,13.45-22.11,27-22.11,7.66,0,15.32,2.16,21,7.57Z" transform="translate(-69.04 -672.91)"/><path class="cls-1" d="M134.33,675.27h19.85l19.53,51.27,19.74-51.27h19.66v73.17H200.7V687.67h-.22l-22.2,60.77h-9.14L147,687.67h-.24v60.77h-12.4Z" transform="translate(-69.04 -672.91)"/><path class="cls-1" d="M300.84,675.27h25.42c14.05,0,27.3,4.54,27.3,21,0,10.55-6.12,18.3-17,19.85L356,748.44h-15.7l-17-31h-9.53v31h-13Zm23.1,31c7.38,0,16-.66,16-10.18,0-8.62-8.09-9.69-14.81-9.69H313.82v19.87Z" transform="translate(-69.04 -672.91)"/><path class="cls-1" d="M379,687H356.65V675.27h57.86V687H392.09v61.42H379Z" transform="translate(-69.04 -672.91)"/><path class="cls-1" d="M497.14,692.42c-5.4-5.67-10.38-7.24-15.41-7.24-15.09,0-25.13,11.58-25.13,26.17,0,15.61,10,27.18,25.13,27.18,5.86,0,11.57-2.69,16.44-8.89l10.73,7.65c-6.61,9.11-16.54,13-27.3,13-22.53,0-38.64-15.26-38.64-38.13,0-23.5,16.11-38.77,38.64-38.77,9.93,0,18.41,3.2,25.64,11.57Z" transform="translate(-69.04 -672.91)"/><path class="cls-1" d="M628.22,691c-2.81-4-7.79-5.82-12.83-5.82-6,0-12,2.7-12,9.42,0,14.69,34.74,6.31,34.74,32.36,0,15.69-12.4,23.35-26.78,23.35-9.09,0-18-2.79-24-9.94l9.87-9.49a17.13,17.13,0,0,0,14.46,7.65c6,0,12.8-3.3,12.8-10,0-16-34.73-6.84-34.73-33,0-15.1,13.44-22.11,27-22.11,7.69,0,15.29,2.16,21,7.57Z" transform="translate(-69.04 -672.91)"/><path class="cls-1" d="M651.68,675.27h13V704.4H698.9V675.27h13v73.17h-13V716.19H664.69v32.25h-13Z" transform="translate(-69.04 -672.91)"/><polygon class="cls-1" points="203.12 20.13 203.12 33.4 216.15 33.4 216.15 2.36 203.12 2.36 200.27 2.36 177.68 33.4 193.43 33.4 203.12 20.13"/><polygon class="cls-1" points="146.94 75.53 162.49 75.53 185.25 44.5 169.54 44.5 146.94 75.53"/><rect class="cls-1" x="203.12" y="44.5" width="13.03" height="31.03"/><polygon class="cls-1" points="433.99 75.53 449.55 75.53 472.32 44.5 456.6 44.5 433.99 75.53"/><polygon class="cls-1" points="490.19 20.15 490.19 33.4 503.2 33.4 503.2 2.36 490.19 2.36 487.33 2.36 464.72 33.4 480.45 33.4 490.19 20.15"/><rect class="cls-1" x="490.19" y="44.5" width="13.01" height="31.03"/></svg>