<svg width="1456" height="340" viewBox="0 0 1456 340" fill="none" xmlns="http://www.w3.org/2000/svg">
<path d="M8.84302 29.9259L34.4639 22.4838C102.6 2.6923 174.568 0.0318184 243.98 14.7386V14.7386L338.5 42L386 58.5L412.5 69.5V69.5C442.103 82.371 472.59 93.1046 503.728 101.618L624.222 134.565V134.565C666.759 144.927 710.007 152.116 753.609 156.073L833.649 163.336C886.255 168.109 939.248 160.524 988.402 141.185L1018.3 129.422L1113.17 102.942C1157.72 90.5073 1204.16 86.277 1250.23 90.4569L1353.12 99.7934C1391.33 103.261 1425.89 123.95 1447 156V156L1447 298.5L8.84394 291.187L8.84302 29.9259Z" fill="white"/>
</svg>
